<?xml version="1.0" encoding="UTF-8"?>
<!--Generator: Apple Native CoreSVG 175.5-->
<!DOCTYPE svg
PUBLIC "-//W3C//DTD SVG 1.1//EN"
       "http://www.w3.org/Graphics/SVG/1.1/DTD/svg11.dtd">
<svg version="1.1" xmlns="http://www.w3.org/2000/svg" xmlns:xlink="http://www.w3.org/1999/xlink" width="3300" height="2200">
 <!--glyph: "uni100C0C.medium", point size: 100.0, font version: "18.0d12e2", template writer version: "101"-->
 <g id="Notes">
  <rect height="2200" id="artboard" style="fill:white;opacity:1" width="3300" x="0" y="0"/>
  <line style="fill:none;stroke:black;opacity:1;stroke-width:0.5;" x1="263" x2="3036" y1="292" y2="292"/>
  <text style="stroke:none;fill:black;font-family:sans-serif;font-size:13;font-weight:bold;" transform="matrix(1 0 0 1 263 322)">Weight/Scale Variations</text>
  <text style="stroke:none;fill:black;font-family:sans-serif;font-size:13;text-anchor:middle;" transform="matrix(1 0 0 1 559.711 322)">Ultralight</text>
  <text style="stroke:none;fill:black;font-family:sans-serif;font-size:13;text-anchor:middle;" transform="matrix(1 0 0 1 856.422 322)">Thin</text>
  <text style="stroke:none;fill:black;font-family:sans-serif;font-size:13;text-anchor:middle;" transform="matrix(1 0 0 1 1153.13 322)">Light</text>
  <text style="stroke:none;fill:black;font-family:sans-serif;font-size:13;text-anchor:middle;" transform="matrix(1 0 0 1 1449.84 322)">Regular</text>
  <text style="stroke:none;fill:black;font-family:sans-serif;font-size:13;text-anchor:middle;" transform="matrix(1 0 0 1 1746.56 322)">Medium</text>
  <text style="stroke:none;fill:black;font-family:sans-serif;font-size:13;text-anchor:middle;" transform="matrix(1 0 0 1 2043.27 322)">Semibold</text>
  <text style="stroke:none;fill:black;font-family:sans-serif;font-size:13;text-anchor:middle;" transform="matrix(1 0 0 1 2339.98 322)">Bold</text>
  <text style="stroke:none;fill:black;font-family:sans-serif;font-size:13;text-anchor:middle;" transform="matrix(1 0 0 1 2636.69 322)">Heavy</text>
  <text style="stroke:none;fill:black;font-family:sans-serif;font-size:13;text-anchor:middle;" transform="matrix(1 0 0 1 2933.4 322)">Black</text>
  <line style="fill:none;stroke:black;opacity:1;stroke-width:0.5;" x1="263" x2="3036" y1="1903" y2="1903"/>
  <g transform="matrix(1 0 0 1 263 1933)">
   <path d="M9.24805 0.830078C13.5547 0.830078 17.1387-2.74414 17.1387-7.05078C17.1387-11.3574 13.5449-14.9316 9.23828-14.9316C4.94141-14.9316 1.36719-11.3574 1.36719-7.05078C1.36719-2.74414 4.95117 0.830078 9.24805 0.830078ZM9.24805-0.654297C5.70312-0.654297 2.87109-3.49609 2.87109-7.05078C2.87109-10.6055 5.69336-13.4473 9.23828-13.4473C12.793-13.4473 15.6445-10.6055 15.6445-7.05078C15.6445-3.49609 12.8027-0.654297 9.24805-0.654297ZM5.6543-7.05078C5.6543-6.62109 5.95703-6.32812 6.40625-6.32812L8.50586-6.32812L8.50586-4.20898C8.50586-3.76953 8.79883-3.4668 9.22852-3.4668C9.67773-3.4668 9.9707-3.76953 9.9707-4.20898L9.9707-6.32812L12.0898-6.32812C12.5293-6.32812 12.832-6.62109 12.832-7.05078C12.832-7.49023 12.5293-7.79297 12.0898-7.79297L9.9707-7.79297L9.9707-9.90234C9.9707-10.3516 9.67773-10.6543 9.22852-10.6543C8.79883-10.6543 8.50586-10.3516 8.50586-9.90234L8.50586-7.79297L6.40625-7.79297C5.95703-7.79297 5.6543-7.49023 5.6543-7.05078Z"/>
  </g>
  <g transform="matrix(1 0 0 1 281.867 1933)">
   <path d="M11.709 2.91016C17.1582 2.91016 21.6699-1.61133 21.6699-7.05078C21.6699-12.5 17.1484-17.0117 11.6992-17.0117C6.25977-17.0117 1.74805-12.5 1.74805-7.05078C1.74805-1.61133 6.26953 2.91016 11.709 2.91016ZM11.709 1.25C7.09961 1.25 3.41797-2.44141 3.41797-7.05078C3.41797-11.6602 7.08984-15.3516 11.6992-15.3516C16.3086-15.3516 20.0098-11.6602 20.0098-7.05078C20.0098-2.44141 16.3184 1.25 11.709 1.25ZM7.17773-7.05078C7.17773-6.57227 7.50977-6.25 8.00781-6.25L10.8789-6.25L10.8789-3.36914C10.8789-2.88086 11.2109-2.53906 11.6895-2.53906C12.1777-2.53906 12.5195-2.87109 12.5195-3.36914L12.5195-6.25L15.4004-6.25C15.8887-6.25 16.2305-6.57227 16.2305-7.05078C16.2305-7.53906 15.8887-7.88086 15.4004-7.88086L12.5195-7.88086L12.5195-10.752C12.5195-11.25 12.1777-11.5918 11.6895-11.5918C11.2109-11.5918 10.8789-11.25 10.8789-10.752L10.8789-7.88086L8.00781-7.88086C7.50977-7.88086 7.17773-7.53906 7.17773-7.05078Z"/>
  </g>
  <g transform="matrix(1 0 0 1 305.646 1933)">
   <path d="M14.9707 5.66406C21.9336 5.66406 27.6953-0.0976562 27.6953-7.05078C27.6953-14.0137 21.9238-19.7754 14.9609-19.7754C8.00781-19.7754 2.25586-14.0137 2.25586-7.05078C2.25586-0.0976562 8.01758 5.66406 14.9707 5.66406ZM14.9707 3.84766C8.93555 3.84766 4.08203-1.01562 4.08203-7.05078C4.08203-13.0957 8.92578-17.9492 14.9609-17.9492C21.0059-17.9492 25.8691-13.0957 25.8691-7.05078C25.8691-1.01562 21.0156 3.84766 14.9707 3.84766ZM9.19922-7.05078C9.19922-6.5332 9.57031-6.17188 10.1172-6.17188L14.0625-6.17188L14.0625-2.2168C14.0625-1.67969 14.4336-1.29883 14.9512-1.29883C15.4883-1.29883 15.8594-1.66992 15.8594-2.2168L15.8594-6.17188L19.8145-6.17188C20.3516-6.17188 20.7324-6.5332 20.7324-7.05078C20.7324-7.59766 20.3613-7.96875 19.8145-7.96875L15.8594-7.96875L15.8594-11.9141C15.8594-12.4609 15.4883-12.8418 14.9512-12.8418C14.4336-12.8418 14.0625-12.4609 14.0625-11.9141L14.0625-7.96875L10.1172-7.96875C9.57031-7.96875 9.19922-7.59766 9.19922-7.05078Z"/>
  </g>
  <text style="stroke:none;fill:black;font-family:sans-serif;font-size:13;font-weight:bold;" transform="matrix(1 0 0 1 263 1953)">Design Variations</text>
  <text style="stroke:none;fill:black;font-family:sans-serif;font-size:13;" transform="matrix(1 0 0 1 263 1971)">Symbols are supported in up to nine weights and three scales.</text>
  <text style="stroke:none;fill:black;font-family:sans-serif;font-size:13;" transform="matrix(1 0 0 1 263 1989)">For optimal layout with text and other symbols, vertically align</text>
  <text style="stroke:none;fill:black;font-family:sans-serif;font-size:13;" transform="matrix(1 0 0 1 263 2007)">symbols with the adjacent text.</text>
  <line style="fill:none;stroke:#00AEEF;stroke-width:0.5;opacity:1.0;" x1="776" x2="776" y1="1919" y2="1933"/>
  <g transform="matrix(1 0 0 1 776 1933)">
   <path d="M3.31055 0.15625C3.82812 0.15625 4.08203-0.0390625 4.26758-0.585938L5.52734-4.0332L11.2891-4.0332L12.5488-0.585938C12.7344-0.0390625 12.9883 0.15625 13.4961 0.15625C14.0137 0.15625 14.3457-0.15625 14.3457-0.644531C14.3457-0.810547 14.3164-0.966797 14.2383-1.17188L9.6582-13.3691C9.43359-13.9648 9.0332-14.2676 8.4082-14.2676C7.80273-14.2676 7.39258-13.9746 7.17773-13.3789L2.59766-1.16211C2.51953-0.957031 2.49023-0.800781 2.49023-0.634766C2.49023-0.146484 2.80273 0.15625 3.31055 0.15625ZM6.00586-5.51758L8.37891-12.0898L8.42773-12.0898L10.8008-5.51758Z"/>
  </g>
  <line style="fill:none;stroke:#00AEEF;stroke-width:0.5;opacity:1.0;" x1="793.197" x2="793.197" y1="1919" y2="1933"/>
  <text style="stroke:none;fill:black;font-family:sans-serif;font-size:13;font-weight:bold;" transform="matrix(1 0 0 1 776 1953)">Margins</text>
  <text style="stroke:none;fill:black;font-family:sans-serif;font-size:13;" transform="matrix(1 0 0 1 776 1971)">Leading and trailing margins on the left and right side of each symbol</text>
  <text style="stroke:none;fill:black;font-family:sans-serif;font-size:13;" transform="matrix(1 0 0 1 776 1989)">can be adjusted by modifying the x-location of the margin guidelines.</text>
  <text style="stroke:none;fill:black;font-family:sans-serif;font-size:13;" transform="matrix(1 0 0 1 776 2007)">Modifications are automatically applied proportionally to all</text>
  <text style="stroke:none;fill:black;font-family:sans-serif;font-size:13;" transform="matrix(1 0 0 1 776 2025)">scales and weights.</text>
  <g transform="matrix(1 0 0 1 1289 1933)">
   <path d="M2.8418 1.86523L4.54102 3.57422C5.40039 4.44336 6.38672 4.38477 7.31445 3.35938L18.0078-8.42773L17.041-9.4043L6.42578 2.27539C6.07422 2.67578 5.74219 2.77344 5.27344 2.30469L4.10156 1.14258C3.63281 0.683594 3.74023 0.341797 4.14062-0.0195312L15.6152-10.8203L14.6387-11.7871L3.04688-0.898438C2.06055 0.0195312 1.98242 0.996094 2.8418 1.86523ZM9.25781-16.3281C8.83789-15.918 8.80859-15.3418 9.04297-14.9512C9.27734-14.5898 9.73633-14.3555 10.3809-14.5215C11.8457-14.8633 13.3691-14.9219 14.7949-13.9844L14.209-12.5293C13.8672-11.6992 14.043-11.1133 14.5801-10.5664L16.875-8.25195C17.3633-7.76367 17.7734-7.74414 18.3398-7.8418L19.4043-8.03711L20.0684-7.36328L20.0293-6.80664C19.9902-6.30859 20.1172-5.92773 20.6055-5.44922L21.3672-4.70703C21.8457-4.22852 22.4609-4.19922 22.9297-4.66797L25.8398-7.58789C26.3086-8.05664 26.2891-8.65234 25.8105-9.13086L25.0391-9.89258C24.5605-10.3711 24.1895-10.5273 23.7109-10.4883L23.1348-10.4395L22.4902-11.0742L22.7344-12.1973C22.8613-12.7637 22.7051-13.2031 22.1191-13.7891L19.9219-15.9766C16.582-19.2969 12.1484-19.2188 9.25781-16.3281ZM10.752-15.957C13.1836-17.7344 16.4746-17.4316 18.7012-15.2051L21.1328-12.793C21.3672-12.5586 21.4062-12.373 21.3379-12.0312L21.0156-10.5469L22.5195-9.0625L23.5059-9.12109C23.7598-9.13086 23.8379-9.11133 24.0332-8.91602L24.6094-8.33984L22.168-5.89844L21.5918-6.47461C21.3965-6.66992 21.3672-6.74805 21.377-7.01172L21.4453-7.98828L19.9512-9.47266L18.4277-9.21875C18.1055-9.15039 17.959-9.17969 17.7148-9.41406L15.7129-11.416C15.459-11.6504 15.4297-11.8164 15.5859-12.1875L16.4648-14.2773C14.9023-15.7324 12.8711-16.3574 10.8398-15.7617C10.6836-15.7227 10.625-15.8496 10.752-15.957Z"/>
  </g>
  <text style="stroke:none;fill:black;font-family:sans-serif;font-size:13;font-weight:bold;" transform="matrix(1 0 0 1 1289 1953)">Exporting</text>
  <text style="stroke:none;fill:black;font-family:sans-serif;font-size:13;" transform="matrix(1 0 0 1 1289 1971)">Symbols should be outlined when exporting to ensure the</text>
  <text style="stroke:none;fill:black;font-family:sans-serif;font-size:13;" transform="matrix(1 0 0 1 1289 1989)">design is preserved when submitting to Xcode.</text>
  <text id="template-version" style="stroke:none;fill:black;font-family:sans-serif;font-size:13;text-anchor:end;" transform="matrix(1 0 0 1 3036 1933)">Template v.4.0</text>
  <text style="stroke:none;fill:black;font-family:sans-serif;font-size:13;text-anchor:end;" transform="matrix(1 0 0 1 3036 1951)">Requires Xcode 14 or greater</text>
  <text id="descriptive-name" style="stroke:none;fill:black;font-family:sans-serif;font-size:13;text-anchor:end;" transform="matrix(1 0 0 1 3036 1969)">Generated from arrow.backward</text>
  <text style="stroke:none;fill:black;font-family:sans-serif;font-size:13;text-anchor:end;" transform="matrix(1 0 0 1 3036 1987)">Typeset at 100 points</text>
  <text style="stroke:none;fill:black;font-family:sans-serif;font-size:13;" transform="matrix(1 0 0 1 263 726)">Small</text>
  <text style="stroke:none;fill:black;font-family:sans-serif;font-size:13;" transform="matrix(1 0 0 1 263 1156)">Medium</text>
  <text style="stroke:none;fill:black;font-family:sans-serif;font-size:13;" transform="matrix(1 0 0 1 263 1586)">Large</text>
 </g>
 <g id="Guides">
  <g id="H-reference" style="fill:#27AAE1;stroke:none;" transform="matrix(1 0 0 1 339 696)">
   <path d="M0.993654 0L3.63775 0L29.3281-67.1323L30.0303-67.1323L30.0303-70.459L28.1226-70.459ZM11.6885-24.4799L46.9815-24.4799L46.2315-26.7285L12.4385-26.7285ZM55.1196 0L57.7637 0L30.6382-70.459L29.4326-70.459L29.4326-67.1323Z"/>
  </g>
  <line id="Baseline-S" style="fill:none;stroke:#27AAE1;opacity:1;stroke-width:0.5;" x1="263" x2="3036" y1="696" y2="696"/>
  <line id="Capline-S" style="fill:none;stroke:#27AAE1;opacity:1;stroke-width:0.5;" x1="263" x2="3036" y1="625.541" y2="625.541"/>
  <g id="H-reference" style="fill:#27AAE1;stroke:none;" transform="matrix(1 0 0 1 339 1126)">
   <path d="M0.993654 0L3.63775 0L29.3281-67.1323L30.0303-67.1323L30.0303-70.459L28.1226-70.459ZM11.6885-24.4799L46.9815-24.4799L46.2315-26.7285L12.4385-26.7285ZM55.1196 0L57.7637 0L30.6382-70.459L29.4326-70.459L29.4326-67.1323Z"/>
  </g>
  <line id="Baseline-M" style="fill:none;stroke:#27AAE1;opacity:1;stroke-width:0.5;" x1="263" x2="3036" y1="1126" y2="1126"/>
  <line id="Capline-M" style="fill:none;stroke:#27AAE1;opacity:1;stroke-width:0.5;" x1="263" x2="3036" y1="1055.54" y2="1055.54"/>
  <g id="H-reference" style="fill:#27AAE1;stroke:none;" transform="matrix(1 0 0 1 339 1556)">
   <path d="M0.993654 0L3.63775 0L29.3281-67.1323L30.0303-67.1323L30.0303-70.459L28.1226-70.459ZM11.6885-24.4799L46.9815-24.4799L46.2315-26.7285L12.4385-26.7285ZM55.1196 0L57.7637 0L30.6382-70.459L29.4326-70.459L29.4326-67.1323Z"/>
  </g>
  <line id="Baseline-L" style="fill:none;stroke:#27AAE1;opacity:1;stroke-width:0.5;" x1="263" x2="3036" y1="1556" y2="1556"/>
  <line id="Capline-L" style="fill:none;stroke:#27AAE1;opacity:1;stroke-width:0.5;" x1="263" x2="3036" y1="1485.54" y2="1485.54"/>
  <line id="left-margin-Regular-M" style="fill:none;stroke:#00AEEF;stroke-width:0.5;opacity:1.0;" x1="1392.06" x2="1392.06" y1="1030.79" y2="1150.12"/>
  <line id="right-margin-Regular-M" style="fill:none;stroke:#00AEEF;stroke-width:0.5;opacity:1.0;" x1="1507.63" x2="1507.63" y1="1030.79" y2="1150.12"/>
 </g>
 <g id="Symbols">
  <g id="Black-L" transform="matrix(1 0 0 1 2854.31 1556)">
   <path d="M16.084-35.5617C16.084-32.5267 17.4043-29.2824 19.4191-27.2884L59.9528 13.1721C62.2597 15.457 65.0743 16.6772 67.7381 16.6772C74.4495 16.6772 78.8464 12.0674 78.8464 6.03853C78.8464 2.55705 77.2966 0.0100792 75.1701-2.03714L61.3595-15.7755L42.7187-32.948L37.3139-25.6662L64.3945-24.2753L130.24-24.2753C137.363-24.2753 142.09-28.7891 142.09-35.5617C142.09-42.3343 137.363-46.8481 130.24-46.8481L64.3945-46.8481L37.3139-45.4573L42.7187-38.1547L61.3595-55.348L75.1701-69.1447C77.2978-71.1932 78.8464-73.7389 78.8464-77.2204C78.8464-83.2493 74.4495-87.8591 67.7381-87.8591C65.0743-87.8591 62.2573-86.6388 59.9421-84.3432L19.4191-43.8351C17.4043-41.841 16.084-38.5968 16.084-35.5617Z"/>
  </g>
  <g id="Heavy-L" transform="matrix(1 0 0 1 2558.66 1556)">
   <path d="M16.084-35.4928C16.084-32.8317 17.2449-30.0391 19.0601-28.2541L59.9385 12.5776C61.9768 14.5801 64.4269 15.636 66.7901 15.636C72.5976 15.636 76.48 11.6053 76.48 6.31435C76.48 3.32642 75.1865 1.05246 73.3336-0.725638L59.1435-14.9272L39.2294-33.2293L34.8149-26.9721L60.1864-25.6287L129.687-25.6287C135.847-25.6287 139.967-29.6004 139.967-35.4928C139.967-41.3852 135.847-45.3569 129.687-45.3569L60.1864-45.3569L34.8149-44.0136L39.2294-37.7262L59.1435-56.0584L73.3336-70.3046C75.1921-72.0883 76.48-74.3567 76.48-77.3446C76.48-82.6356 72.5976-86.6663 66.7901-86.6663C64.4269-86.6663 61.9656-85.6104 59.888-83.5573L19.0601-42.7316C17.2449-40.9465 16.084-38.1539 16.084-35.4928Z"/>
  </g>
  <g id="Bold-L" transform="matrix(1 0 0 1 2263.14 1556)">
   <path d="M16.084-35.4157C16.084-33.2157 17.0452-30.9765 18.5995-29.4601L59.9305 11.8698C61.6309 13.519 63.6277 14.375 65.6145 14.375C70.3225 14.375 73.5597 11.059 73.5597 6.68981C73.5597 4.29414 72.5665 2.36573 71.0517 0.918128L55.8563-14.3664L34.9408-33.5975L31.6661-28.556L54.917-27.3113L129.234-27.3113C134.218-27.3113 137.592-30.6069 137.592-35.4157C137.592-40.2245 134.218-43.5201 129.234-43.5201L54.917-43.5201L31.6661-42.2754L34.9408-37.196L55.8563-56.465L71.0517-71.7788C72.5797-73.2396 73.5597-75.1548 73.5597-77.5505C73.5597-81.9196 70.3225-85.2356 65.6145-85.2356C63.6277-85.2356 61.6044-84.3796 59.8114-82.6114L18.5995-41.3713C17.0452-39.8549 16.084-37.6157 16.084-35.4157Z"/>
  </g>
  <g id="Semibold-L" transform="matrix(1 0 0 1 1967.25 1556)">
   <path d="M16.084-35.3626C16.084-33.4804 16.9075-31.6228 18.282-30.2916L59.925 11.3818C61.3924 12.7874 63.0767 13.5056 64.804 13.5056C68.7541 13.5056 71.5465 10.6823 71.5465 6.94865C71.5465 4.96128 70.7603 3.27109 69.4786 2.05133L53.5901-13.9798L31.9842-33.8513L29.4954-29.6479L51.2843-28.4713L128.922-28.4713C133.095-28.4713 135.955-31.3008 135.955-35.3626C135.955-39.4243 133.095-42.2538 128.922-42.2538L51.2843-42.2538L29.4954-41.0772L31.9842-36.8304L53.5901-56.7454L69.4786-72.795C70.7787-74.0333 71.5465-75.705 71.5465-77.6924C71.5465-81.426 68.7541-84.2493 64.804-84.2493C63.0767-84.2493 61.3555-83.5311 59.7587-81.9592L18.282-40.4335C16.9075-39.1023 16.084-37.2447 16.084-35.3626Z"/>
  </g>
  <g id="Medium-L" transform="matrix(1 0 0 1 1671.16 1556)">
   <path d="M16.084-35.3223C16.084-33.6811 16.8031-32.1128 18.0413-30.922L59.9208 11.0118C61.2116 12.2327 62.6589 12.8464 64.1895 12.8464C67.5649 12.8464 70.02 10.3967 70.02 7.14492C70.02 5.46714 69.3907 3.95757 68.2857 2.91057L51.8717-13.6866L29.7424-34.0438L27.8495-30.4759L48.5299-29.3508L128.685-29.3508C132.243-29.3508 134.714-31.827 134.714-35.3223C134.714-38.8176 132.243-41.2937 128.685-41.2937L48.5299-41.2937L27.8495-40.1686L29.7424-36.5533L51.8717-56.9579L68.2857-73.5656C69.4132-74.6351 70.02-76.1222 70.02-77.8C70.02-81.0517 67.5649-83.5015 64.1895-83.5015C62.6589-83.5015 61.1667-82.8878 59.7187-81.4647L18.0413-39.7225C16.8031-38.5317 16.084-36.9634 16.084-35.3223Z"/>
  </g>
  <g id="Regular-L" transform="matrix(1 0 0 1 1375.25 1556)">
   <path d="M16.084-35.2697C16.084-33.943 16.6669-32.752 17.7273-31.7444L59.9154 10.5292C60.9758 11.5092 62.114 11.9866 63.388 11.9866C66.0138 11.9866 68.029 10.0242 68.029 7.40091C68.029 6.12695 67.6043 4.85298 66.7299 4.03132L49.6304-13.3043L26.8183-34.2949L25.7026-31.5559L44.9371-30.4981L128.376-30.4981C131.133-30.4981 133.095-32.5133 133.095-35.2697C133.095-38.0261 131.133-40.0413 128.376-40.0413L44.9371-40.0413L25.7026-38.9835L26.8183-36.1918L49.6304-57.2351L66.7299-74.5707C67.632-75.42 68.029-76.6663 68.029-77.9403C68.029-80.5636 66.0138-82.526 63.388-82.526C62.114-82.526 60.9204-82.0486 59.6665-80.8197L17.7273-38.795C16.6669-37.7874 16.084-36.5964 16.084-35.2697Z"/>
  </g>
  <g id="Light-L" transform="matrix(1 0 0 1 1078.54 1556)">
   <path d="M16.084-35.2697C16.084-34.2483 16.5142-33.4009 17.3074-32.6414L59.9726 10.2239C60.7658 10.9366 61.5796 11.2995 62.5673 11.2995C64.5633 11.2995 66.0823 9.81423 66.0823 7.87805C66.0823 6.89036 65.753 5.90267 65.1076 5.29095L43.8667-16.0716L24.07-34.6766L23.1833-32.4338L40.9292-31.7004L129.559-31.7004C131.61-31.7004 133.095-33.2194 133.095-35.2697C133.095-37.32 131.61-38.839 129.559-38.839L40.9292-38.839L23.1833-38.1056L24.07-35.8292L43.8667-54.4678L65.1076-75.8304C65.7998-76.4888 66.0823-77.4298 66.0823-78.4175C66.0823-80.3536 64.5633-81.8389 62.5673-81.8389C61.5796-81.8389 60.6723-81.476 59.552-80.3426L17.3074-37.898C16.5142-37.1385 16.084-36.2911 16.084-35.2697Z"/>
  </g>
  <g id="Thin-L" transform="matrix(1 0 0 1 781.833 1556)">
   <path d="M16.084-35.2697C16.084-34.6522 16.3123-34.2591 16.7521-33.8277L60.0484 9.82001C60.4882 10.1794 60.8728 10.3908 61.4819 10.3908C62.6449 10.3908 63.5076 9.53657 63.5076 8.50909C63.5076 7.90003 63.3046 7.29097 62.9621 6.95691L36.2437-19.7317L20.4352-35.1814L19.8514-33.5949L35.6284-33.2907L131.124-33.2907C132.241-33.2907 133.095-34.1534 133.095-35.2697C133.095-36.386 132.241-37.2487 131.124-37.2487L35.6284-37.2487L19.8514-36.9445L20.4352-35.3496L36.2437-50.8077L62.9621-77.4963C63.3766-77.9024 63.5076-78.4394 63.5076-79.0485C63.5076-80.076 62.6449-80.9302 61.4819-80.9302C60.8728-80.9302 60.3442-80.7188 59.4005-79.7116L16.7521-36.7117C16.3123-36.2803 16.084-35.8872 16.084-35.2697Z"/>
  </g>
  <g id="Ultralight-L" transform="matrix(1 0 0 1 485.122 1556)">
   <path d="M16.084-35.2697C16.084-34.8591 16.2089-34.6987 16.4677-34.4354L60.0872 9.61315C60.3459 9.79152 60.5108 9.9254 60.926 9.9254C61.6623 9.9254 62.1889 9.39436 62.1889 8.83231C62.1889 8.41718 62.0505 8.00205 61.8632 7.81021L32.3392-21.6064L18.5734-35.44L18.1448-34.1896L32.9133-34.1052L131.926-34.1052C132.564-34.1052 133.095-34.6317 133.095-35.2697C133.095-35.9077 132.564-36.4342 131.926-36.4342L32.9133-36.4342L18.1448-36.3498L18.5734-35.1039L32.3392-48.933L61.8632-78.3496C62.1354-78.6264 62.1889-78.9566 62.1889-79.3717C62.1889-79.9338 61.6623-80.4648 60.926-80.4648C60.5108-80.4648 60.1761-80.3309 59.3229-79.3883L16.4677-36.104C16.2089-35.8407 16.084-35.6803 16.084-35.2697Z"/>
  </g>
  <g id="Black-M" transform="matrix(1 0 0 1 2871.22 1126)">
   <path d="M12.4609-35.5461C12.4609-32.9148 13.6001-30.0597 15.2965-28.3688L46.468 2.73874C48.4499 4.71543 50.8999 5.78652 53.1831 5.78652C59.0742 5.78652 62.8557 1.78212 62.8557-3.42983C62.8557-6.51246 61.4475-8.68155 59.596-10.4705L48.6613-21.2616L35.7224-33.2718L30.715-26.817L52.9626-25.7426L101.538-25.7426C107.788-25.7426 111.907-29.6383 111.907-35.5461C111.907-41.4539 107.788-45.3496 101.538-45.3496L52.9626-45.3496L30.715-44.2752L35.7224-37.8149L48.6613-49.8307L59.596-60.6789C61.4472-62.4675 62.8557-64.6369 62.8557-67.7195C62.8557-72.9315 59.0742-76.9359 53.1831-76.9359C50.8999-76.9359 48.4505-75.8648 46.4706-73.8906L15.2965-42.7235C13.6001-41.0326 12.4609-38.1775 12.4609-35.5461Z"/>
  </g>
  <g id="Heavy-M" transform="matrix(1 0 0 1 2575.54 1126)">
   <path d="M12.4609-35.4788C12.4609-33.1848 13.4584-30.7395 14.9843-29.23L46.4488 2.18579C48.1927 3.91108 50.3162 4.83209 52.3321 4.83209C57.3976 4.83209 60.7219 1.34975 60.7219-3.20421C60.7219-5.83077 59.5556-7.75939 57.9503-9.30459L47.0268-20.1771L32.5649-33.5116L28.5045-28.0126L49.2187-26.9547L100.888-26.9547C106.262-26.9547 109.832-30.3662 109.832-35.4788C109.832-40.5913 106.262-44.0028 100.888-44.0028L49.2187-44.0028L28.5045-42.9449L32.5649-37.4295L47.0268-50.7804L57.9503-61.6965C59.5579-63.244 60.7219-65.1704 60.7219-67.7969C60.7219-72.3509 57.3976-75.8332 52.3321-75.8332C50.3162-75.8332 48.1882-74.9122 46.4283-73.1665L14.9843-41.7275C13.4584-40.218 12.4609-37.7728 12.4609-35.4788Z"/>
  </g>
  <g id="Bold-M" transform="matrix(1 0 0 1 2279.99 1126)">
   <path d="M12.4609-35.4034C12.4609-33.4868 13.2998-31.5 14.6349-30.1935L46.4272 1.56724C47.905 3.01131 49.6633 3.76443 51.3801 3.76443C55.5222 3.76443 58.335 0.866085 58.335-2.95183C58.335-5.06821 57.4392-6.72782 56.1094-8.00038L45.1983-18.9639L29.0329-33.7799L26.0317-29.3501L45.0306-28.3106L100.161-28.3106C104.555-28.3106 107.511-31.1805 107.511-35.4034C107.511-39.6263 104.555-42.4961 100.161-42.4961L45.0306-42.4961L26.0317-41.4567L29.0329-36.9983L45.1983-51.8429L56.1094-62.8349C57.4443-64.1126 58.335-65.7671 58.335-67.8835C58.335-71.7014 55.5222-74.5997 51.3801-74.5997C49.6633-74.5997 47.8947-73.8466 46.381-72.3564L14.6349-40.6133C13.2998-39.3068 12.4609-37.32 12.4609-35.4034Z"/>
  </g>
  <g id="Semibold-M" transform="matrix(1 0 0 1 1984.08 1126)">
   <path d="M12.4609-35.3514C12.4609-33.695 13.1905-32.0242 14.3941-30.8577L46.4123 1.14081C47.7067 2.39102 49.2133 3.02838 50.7237 3.02838C54.2293 3.02838 56.6894 0.532649 56.6894-2.77783C56.6894-4.5425 55.9801-6.01666 54.8403-7.10127L43.9378-18.1275L26.5979-33.9648L24.327-30.2721L42.1433-29.2454L99.6598-29.2454C103.378-29.2454 105.91-31.7419 105.91-35.3514C105.91-38.961 103.378-41.4574 99.6598-41.4574L42.1433-41.4574L24.327-40.4308L26.5979-36.701L43.9378-52.5754L54.8403-63.6197C55.9873-64.7115 56.6894-66.1785 56.6894-67.9432C56.6894-71.2537 54.2293-73.7494 50.7237-73.7494C49.2133-73.7494 47.6925-73.112 46.3484-71.7979L14.3941-39.8451C13.1905-38.6786 12.4609-37.0079 12.4609-35.3514Z"/>
  </g>
  <g id="Medium-M" transform="matrix(1 0 0 1 1687.98 1126)">
   <path d="M12.4609-35.312C12.4609-33.8528 13.1077-32.4218 14.2115-31.3614L46.401 0.817475C47.5563 1.92068 48.872 2.47029 50.2261 2.47029C53.2489 2.47029 55.4417 0.279824 55.4417-2.6459C55.4417-4.14389 54.8738-5.47743 53.878-6.41952L42.982-17.4933L24.7516-34.105L23.0344-30.9712L39.9541-29.9542L99.2798-29.9542C102.486-29.9542 104.697-32.1675 104.697-35.312C104.697-38.4565 102.486-40.6699 99.2798-40.6699L39.9541-40.6699L23.0344-39.6529L24.7516-36.4756L42.982-53.1307L53.878-64.2148C54.8824-65.1655 55.4417-66.4905 55.4417-67.9884C55.4417-70.9142 53.2489-73.1046 50.2261-73.1046C48.872-73.1046 47.5391-72.555 46.3236-71.3744L14.2115-39.2627C13.1077-38.2023 12.4609-36.7712 12.4609-35.312Z"/>
  </g>
  <g id="Regular-M" transform="matrix(1 0 0 1 1392.06 1126)">
   <path d="M12.4609-35.2606C12.4609-34.0588 12.9996-32.9403 13.9733-32.0183L46.3863 0.395734C47.3601 1.3072 48.4268 1.74233 49.577 1.74233C51.9702 1.74233 53.8142-0.0499481 53.8142-2.47382C53.8142-3.62395 53.4308-4.77409 52.6229-5.53029L41.7353-16.6661L22.3433-34.2879L21.3485-31.8831L37.0985-30.8787L98.784-30.8787C101.322-30.8787 103.114-32.7227 103.114-35.2606C103.114-37.7986 101.322-39.6426 98.784-39.6426L37.0985-39.6426L21.3485-38.6382L22.3433-36.1817L41.7353-53.8552L52.6229-64.991C53.4414-65.7578 53.8142-66.8973 53.8142-68.0475C53.8142-70.4713 51.9702-72.2636 49.577-72.2636C48.4268-72.2636 47.339-71.8285 46.2914-70.8221L13.9733-38.503C12.9996-37.581 12.4609-36.4625 12.4609-35.2606Z"/>
  </g>
  <g id="Light-M" transform="matrix(1 0 0 1 1095.35 1126)">
   <path d="M12.4609-35.2606C12.4609-34.3325 12.8627-33.5221 13.5969-32.8225L46.4377 0.121959C47.1719 0.793871 47.9477 1.12634 48.8412 1.12634C50.6698 1.12634 52.0689-0.238168 52.0689-2.04605C52.0689-2.93952 51.7711-3.83299 51.1685-4.40097L36.5678-19.1472L19.8794-34.6301L19.0898-32.6702L33.5052-31.9567L99.8449-31.9567C101.75-31.9567 103.114-33.3558 103.114-35.2606C103.114-37.1655 101.75-38.5646 99.8449-38.5646L33.5052-38.5646L19.0898-37.8511L19.8794-35.8566L36.5678-51.3741L51.1685-66.1203C51.7987-66.716 52.0689-67.5818 52.0689-68.4752C52.0689-70.2831 50.6698-71.6476 48.8412-71.6476C47.9477-71.6476 47.1166-71.3152 46.1887-70.3943L13.5969-37.6988C12.8627-36.9992 12.4609-36.1888 12.4609-35.2606Z"/>
  </g>
  <g id="Thin-M" transform="matrix(1 0 0 1 798.635 1126)">
   <path d="M12.4609-35.2606C12.4609-34.6946 12.6816-34.2915 13.099-33.8861L46.5056-0.24013C46.923 0.114953 47.3141 0.311635 47.8681 0.311635C48.9498 0.311635 49.7606-0.487105 49.7606-1.48028C49.7606-2.03429 49.5759-2.5883 49.2449-2.90735L29.7333-22.4287L16.6206-35.0827L16.1026-33.7112L28.7528-33.3824L101.248-33.3824C102.316-33.3824 103.114-34.1931 103.114-35.2606C103.114-36.3281 102.316-37.1389 101.248-37.1389L28.7528-37.1389L16.1026-36.8101L16.6206-35.4266L29.7333-48.0926L49.2449-67.6139C49.6262-67.9833 49.7606-68.487 49.7606-69.041C49.7606-70.0342 48.9498-70.8329 47.8681-70.8329C47.3141-70.8329 46.8224-70.6362 46.0529-69.8285L13.099-36.6352C12.6816-36.2298 12.4609-35.8267 12.4609-35.2606Z"/>
  </g>
  <g id="Ultralight-M" transform="matrix(1 0 0 1 501.924 1126)">
   <path d="M12.4609-35.2606C12.4609-34.8801 12.5889-34.6856 12.844-34.4309L46.5403-0.425591C46.7954-0.232785 46.9895-0.105651 47.3697-0.105651C48.0689-0.105651 48.5783-0.614609 48.5783-1.1905C48.5783-1.57064 48.4516-1.95078 48.2596-2.14233L26.2328-24.1094L14.9514-35.3145L14.5725-34.2444L26.3186-34.1126L101.967-34.1126C102.605-34.1126 103.114-34.622 103.114-35.2606C103.114-35.8993 102.605-36.4086 101.967-36.4086L26.3186-36.4086L14.5725-36.2769L14.9514-35.2063L26.2328-46.4119L48.2596-68.379C48.5134-68.6324 48.5783-68.9506 48.5783-69.3308C48.5783-69.9067 48.0689-70.4156 47.3697-70.4156C46.9895-70.4156 46.6717-70.2885 45.9834-69.5387L12.844-36.0904C12.5889-35.8357 12.4609-35.6412 12.4609-35.2606Z"/>
  </g>
  <g id="Black-S" transform="matrix(1 0 0 1 2884.35 696)">
   <path d="M9.76562-35.498C9.76562-33.3496 10.6934-31.0059 12.0605-29.6387L36.4258-5.32227C38.0371-3.71094 40.0391-2.83203 41.8945-2.83203C46.7285-2.83203 49.8047-6.10352 49.8047-10.3516C49.8047-12.8906 48.6328-14.6484 47.1191-16.1133L38.3301-24.7559L28.8086-33.6426L24.6094-28.3203L42.4316-27.4902L79.834-27.4902C84.9609-27.4902 88.3301-30.6641 88.3301-35.498C88.3301-40.332 84.9609-43.5059 79.834-43.5059L42.4316-43.5059L24.6094-42.6758L28.8086-37.3535L38.3301-46.2402L47.1191-54.9316C48.6328-56.3965 49.8047-58.1543 49.8047-60.6934C49.8047-64.9414 46.7285-68.2129 41.8945-68.2129C40.0391-68.2129 38.0371-67.334 36.4258-65.7227L12.0605-41.3574C10.6934-39.9902 9.76562-37.6465 9.76562-35.498Z"/>
  </g>
  <g id="Heavy-S" transform="matrix(1 0 0 1 2588.53 696)">
   <path d="M9.76562-35.4404C9.76562-33.5455 10.5896-31.5129 11.8416-30.2725L36.4027-5.7602C37.8412-4.33326 39.6011-3.5696 41.2607-3.5696C45.4608-3.5696 48.2028-6.44925 48.2028-10.2133C48.2028-12.3951 47.2268-13.98 45.8975-15.2605L37.5925-23.5112L26.423-33.8039L23.0075-29.2423L39.6888-28.3891L79.1425-28.3891C83.6011-28.3891 86.5553-31.2057 86.5553-35.4404C86.5553-39.6751 83.6011-42.4917 79.1425-42.4917L39.6888-42.4917L23.0075-41.6386L26.423-37.0654L37.5925-47.3696L45.8975-55.6577C47.2268-56.9381 48.2028-58.5231 48.2028-60.7049C48.2028-64.4689 45.4608-67.3486 41.2607-67.3486C39.6011-67.3486 37.8412-66.5849 36.4027-65.158L11.8416-40.6083C10.5896-39.3679 9.76562-37.3353 9.76562-35.4404Z"/>
  </g>
  <g id="Bold-S" transform="matrix(1 0 0 1 2292.81 696)">
   <path d="M9.76562-35.376C9.76562-33.7646 10.4736-32.0801 11.5967-30.9814L36.377-6.25C37.6221-5.0293 39.1113-4.39453 40.5518-4.39453C44.043-4.39453 46.4111-6.83594 46.4111-10.0586C46.4111-11.8408 45.6543-13.2324 44.5312-14.3066L36.7676-22.1191L23.7549-33.9844L21.2158-30.2734L36.6211-29.3945L78.3691-29.3945C82.0801-29.3945 84.5703-31.8115 84.5703-35.376C84.5703-38.9404 82.0801-41.3574 78.3691-41.3574L36.6211-41.3574L21.2158-40.4785L23.7549-36.7432L36.7676-48.6328L44.5312-56.4697C45.6543-57.5439 46.4111-58.9355 46.4111-60.7178C46.4111-63.9404 44.043-66.3818 40.5518-66.3818C39.1113-66.3818 37.6221-65.7471 36.377-64.5264L11.5967-39.7705C10.4736-38.6719 9.76562-36.9873 9.76562-35.376Z"/>
  </g>
  <g id="Semibold-S" transform="matrix(1 0 0 1 1996.78 696)">
   <path d="M9.76562-35.3315C9.76562-33.9157 10.3937-32.4711 11.4278-31.4702L36.3592-6.5877C37.471-5.50918 38.7736-4.96328 40.063-4.96328C43.0654-4.96328 45.1759-7.10254 45.1759-9.95195C45.1759-11.4587 44.5701-12.717 43.5893-13.649L36.1988-21.1594L21.9153-34.1088L19.9806-30.9844L34.5061-30.0877L77.8359-30.0877C81.0314-30.0877 83.2018-32.2292 83.2018-35.3315C83.2018-38.4339 81.0314-40.5754 77.8359-40.5754L34.5061-40.5754L19.9806-39.6787L21.9153-36.521L36.1988-49.5037L43.5893-57.0296C44.5701-57.9616 45.1759-59.2199 45.1759-60.7267C45.1759-63.5761 43.0654-65.7153 40.063-65.7153C38.7736-65.7153 37.471-65.1694 36.3592-64.0909L11.4278-39.1929C10.3937-38.192 9.76562-36.7474 9.76562-35.3315Z"/>
  </g>
  <g id="Medium-S" transform="matrix(1 0 0 1 1700.59 696)">
   <path d="M9.76562-35.2979C9.76562-34.0303 10.333-32.7676 11.2998-31.8408L36.3457-6.84375C37.3564-5.87305 38.5176-5.39453 39.6924-5.39453C42.3242-5.39453 44.2393-7.30469 44.2393-9.87109C44.2393-11.1689 43.748-12.3262 42.875-13.1504L35.7676-20.4316L20.5205-34.2031L19.0439-31.5234L32.9023-30.6133L77.4316-30.6133C80.2363-30.6133 82.1641-32.5459 82.1641-35.2979C82.1641-38.0498 80.2363-39.9824 77.4316-39.9824L32.9023-39.9824L19.0439-39.0723L20.5205-36.3525L35.7676-50.1641L42.875-57.4541C43.748-58.2783 44.2393-59.4355 44.2393-60.7334C44.2393-63.2998 42.3242-65.21 39.6924-65.21C38.5176-65.21 37.3564-64.7314 36.3457-63.7607L11.2998-38.7549C10.333-37.8281 9.76562-36.5654 9.76562-35.2979Z"/>
  </g>
  <g id="Regular-S" transform="matrix(1 0 0 1 1404.56 696)">
   <path d="M9.76562-35.2539C9.76562-34.1797 10.2539-33.1543 11.1328-32.3242L36.3281-7.17773C37.207-6.34766 38.1836-5.95703 39.209-5.95703C41.3574-5.95703 43.0176-7.56836 43.0176-9.76562C43.0176-10.791 42.6758-11.8164 41.9434-12.5L35.2051-19.4824L18.7012-34.3262L17.8223-32.2266L30.8105-31.2988L76.9043-31.2988C79.1992-31.2988 80.8105-32.959 80.8105-35.2539C80.8105-37.5488 79.1992-39.209 76.9043-39.209L30.8105-39.209L17.8223-38.2812L18.7012-36.1328L35.2051-51.0254L41.9434-58.0078C42.6758-58.6914 43.0176-59.7168 43.0176-60.7422C43.0176-62.9395 41.3574-64.5508 39.209-64.5508C38.1836-64.5508 37.207-64.1602 36.3281-63.3301L11.1328-38.1836C10.2539-37.3535 9.76562-36.3281 9.76562-35.2539Z"/>
  </g>
  <g id="Light-S" transform="matrix(1 0 0 1 1107.85 696)">
   <path d="M9.76562-35.2539C9.76562-34.4219 10.1328-33.6689 10.7998-33.0356L36.3735-7.41992C37.0405-6.80175 37.7598-6.50195 38.5581-6.50195C40.207-6.50195 41.4736-7.73486 41.4736-9.38721C41.4736-10.1856 41.2075-10.9839 40.6567-11.501L30.6338-21.6772L16.5215-34.6289L15.8242-32.9228L27.6319-32.2524L77.8428-32.2524C79.5776-32.2524 80.8105-33.519 80.8105-35.2539C80.8105-36.9888 79.5776-38.2554 77.8428-38.2554L27.6319-38.2554L15.8242-37.585L16.5215-35.8452L30.6338-48.8306L40.6567-59.0068C41.2227-59.5391 41.4736-60.3223 41.4736-61.1206C41.4736-62.773 40.207-64.0059 38.5581-64.0059C37.7598-64.0059 37.0103-63.7061 36.2373-62.9517L10.7998-37.4722C10.1328-36.8389 9.76562-36.0859 9.76562-35.2539Z"/>
  </g>
  <g id="Thin-S" transform="matrix(1 0 0 1 811.134 696)">
   <path d="M9.76562-35.2539C9.76562-34.7422 9.97266-34.3496 10.3594-33.9765L36.4336-7.74023C36.8203-7.40234 37.1992-7.22265 37.6973-7.22265C38.6856-7.22265 39.4317-7.95508 39.4317-8.88673C39.4317-9.38478 39.2657-9.88283 38.9551-10.1797L24.588-24.58L13.6387-35.0293L13.1817-33.8437L23.4278-33.5137L79.084-33.5137C80.0781-33.5137 80.8105-34.2598 80.8105-35.2539C80.8105-36.2481 80.0781-36.9942 79.084-36.9942L23.4278-36.9942L13.1817-36.6641L13.6387-35.4648L24.588-45.9278L38.9551-60.3281C39.3008-60.6601 39.4317-61.123 39.4317-61.6211C39.4317-62.5527 38.6856-63.2852 37.6973-63.2852C37.1992-63.2852 36.75-63.1055 36.1172-62.4512L10.3594-36.5313C9.97266-36.1582 9.76562-35.7656 9.76562-35.2539Z"/>
  </g>
  <g id="Ultralight-S" transform="matrix(1 0 0 1 514.423 696)">
   <path d="M9.76562-35.2539C9.76562-34.9062 9.89063-34.6982 10.1338-34.4585L36.4644-7.90429C36.7075-7.70995 36.9121-7.59178 37.2564-7.59178C37.9063-7.59178 38.3858-8.06787 38.3858-8.63038C38.3858-8.97462 38.271-9.31887 38.0835-9.50295L21.4913-26.0668L12.1622-35.2344L11.8282-34.3154L21.2745-34.1596L79.7197-34.1596C80.3345-34.1596 80.8105-34.6391 80.8105-35.2539C80.8105-35.8687 80.3345-36.3482 79.7197-36.3482L21.2745-36.3482L11.8282-36.1924L12.1622-35.27L21.4913-44.441L38.0835-61.0049C38.3164-61.2344 38.3858-61.5332 38.3858-61.8774C38.3858-62.4399 37.9063-62.916 37.2564-62.916C36.9121-62.916 36.6167-62.7979 36.0557-62.1948L10.1338-36.0493C9.89063-35.8096 9.76562-35.6016 9.76562-35.2539Z"/>
  </g>
 </g>
</svg>
