<?xml version="1.0" encoding="UTF-8"?>
<!--Generator: Apple Native CoreSVG 175.5-->
<!DOCTYPE svg
PUBLIC "-//W3C//DTD SVG 1.1//EN"
       "http://www.w3.org/Graphics/SVG/1.1/DTD/svg11.dtd">
<svg version="1.1" xmlns="http://www.w3.org/2000/svg" xmlns:xlink="http://www.w3.org/1999/xlink" width="3300" height="2200">
 <!--glyph: "uni1002D9.medium", point size: 100.0, font version: "18.0d12e2", template writer version: "101"-->
 <g id="Notes">
  <rect height="2200" id="artboard" style="fill:white;opacity:1" width="3300" x="0" y="0"/>
  <line style="fill:none;stroke:black;opacity:1;stroke-width:0.5;" x1="263" x2="3036" y1="292" y2="292"/>
  <text style="stroke:none;fill:black;font-family:sans-serif;font-size:13;font-weight:bold;" transform="matrix(1 0 0 1 263 322)">Weight/Scale Variations</text>
  <text style="stroke:none;fill:black;font-family:sans-serif;font-size:13;text-anchor:middle;" transform="matrix(1 0 0 1 559.711 322)">Ultralight</text>
  <text style="stroke:none;fill:black;font-family:sans-serif;font-size:13;text-anchor:middle;" transform="matrix(1 0 0 1 856.422 322)">Thin</text>
  <text style="stroke:none;fill:black;font-family:sans-serif;font-size:13;text-anchor:middle;" transform="matrix(1 0 0 1 1153.13 322)">Light</text>
  <text style="stroke:none;fill:black;font-family:sans-serif;font-size:13;text-anchor:middle;" transform="matrix(1 0 0 1 1449.84 322)">Regular</text>
  <text style="stroke:none;fill:black;font-family:sans-serif;font-size:13;text-anchor:middle;" transform="matrix(1 0 0 1 1746.56 322)">Medium</text>
  <text style="stroke:none;fill:black;font-family:sans-serif;font-size:13;text-anchor:middle;" transform="matrix(1 0 0 1 2043.27 322)">Semibold</text>
  <text style="stroke:none;fill:black;font-family:sans-serif;font-size:13;text-anchor:middle;" transform="matrix(1 0 0 1 2339.98 322)">Bold</text>
  <text style="stroke:none;fill:black;font-family:sans-serif;font-size:13;text-anchor:middle;" transform="matrix(1 0 0 1 2636.69 322)">Heavy</text>
  <text style="stroke:none;fill:black;font-family:sans-serif;font-size:13;text-anchor:middle;" transform="matrix(1 0 0 1 2933.4 322)">Black</text>
  <line style="fill:none;stroke:black;opacity:1;stroke-width:0.5;" x1="263" x2="3036" y1="1903" y2="1903"/>
  <g transform="matrix(1 0 0 1 263 1933)">
   <path d="M9.24805 0.830078C13.5547 0.830078 17.1387-2.74414 17.1387-7.05078C17.1387-11.3574 13.5449-14.9316 9.23828-14.9316C4.94141-14.9316 1.36719-11.3574 1.36719-7.05078C1.36719-2.74414 4.95117 0.830078 9.24805 0.830078ZM9.24805-0.654297C5.70312-0.654297 2.87109-3.49609 2.87109-7.05078C2.87109-10.6055 5.69336-13.4473 9.23828-13.4473C12.793-13.4473 15.6445-10.6055 15.6445-7.05078C15.6445-3.49609 12.8027-0.654297 9.24805-0.654297ZM5.6543-7.05078C5.6543-6.62109 5.95703-6.32812 6.40625-6.32812L8.50586-6.32812L8.50586-4.20898C8.50586-3.76953 8.79883-3.4668 9.22852-3.4668C9.67773-3.4668 9.9707-3.76953 9.9707-4.20898L9.9707-6.32812L12.0898-6.32812C12.5293-6.32812 12.832-6.62109 12.832-7.05078C12.832-7.49023 12.5293-7.79297 12.0898-7.79297L9.9707-7.79297L9.9707-9.90234C9.9707-10.3516 9.67773-10.6543 9.22852-10.6543C8.79883-10.6543 8.50586-10.3516 8.50586-9.90234L8.50586-7.79297L6.40625-7.79297C5.95703-7.79297 5.6543-7.49023 5.6543-7.05078Z"/>
  </g>
  <g transform="matrix(1 0 0 1 281.867 1933)">
   <path d="M11.709 2.91016C17.1582 2.91016 21.6699-1.61133 21.6699-7.05078C21.6699-12.5 17.1484-17.0117 11.6992-17.0117C6.25977-17.0117 1.74805-12.5 1.74805-7.05078C1.74805-1.61133 6.26953 2.91016 11.709 2.91016ZM11.709 1.25C7.09961 1.25 3.41797-2.44141 3.41797-7.05078C3.41797-11.6602 7.08984-15.3516 11.6992-15.3516C16.3086-15.3516 20.0098-11.6602 20.0098-7.05078C20.0098-2.44141 16.3184 1.25 11.709 1.25ZM7.17773-7.05078C7.17773-6.57227 7.50977-6.25 8.00781-6.25L10.8789-6.25L10.8789-3.36914C10.8789-2.88086 11.2109-2.53906 11.6895-2.53906C12.1777-2.53906 12.5195-2.87109 12.5195-3.36914L12.5195-6.25L15.4004-6.25C15.8887-6.25 16.2305-6.57227 16.2305-7.05078C16.2305-7.53906 15.8887-7.88086 15.4004-7.88086L12.5195-7.88086L12.5195-10.752C12.5195-11.25 12.1777-11.5918 11.6895-11.5918C11.2109-11.5918 10.8789-11.25 10.8789-10.752L10.8789-7.88086L8.00781-7.88086C7.50977-7.88086 7.17773-7.53906 7.17773-7.05078Z"/>
  </g>
  <g transform="matrix(1 0 0 1 305.646 1933)">
   <path d="M14.9707 5.66406C21.9336 5.66406 27.6953-0.0976562 27.6953-7.05078C27.6953-14.0137 21.9238-19.7754 14.9609-19.7754C8.00781-19.7754 2.25586-14.0137 2.25586-7.05078C2.25586-0.0976562 8.01758 5.66406 14.9707 5.66406ZM14.9707 3.84766C8.93555 3.84766 4.08203-1.01562 4.08203-7.05078C4.08203-13.0957 8.92578-17.9492 14.9609-17.9492C21.0059-17.9492 25.8691-13.0957 25.8691-7.05078C25.8691-1.01562 21.0156 3.84766 14.9707 3.84766ZM9.19922-7.05078C9.19922-6.5332 9.57031-6.17188 10.1172-6.17188L14.0625-6.17188L14.0625-2.2168C14.0625-1.67969 14.4336-1.29883 14.9512-1.29883C15.4883-1.29883 15.8594-1.66992 15.8594-2.2168L15.8594-6.17188L19.8145-6.17188C20.3516-6.17188 20.7324-6.5332 20.7324-7.05078C20.7324-7.59766 20.3613-7.96875 19.8145-7.96875L15.8594-7.96875L15.8594-11.9141C15.8594-12.4609 15.4883-12.8418 14.9512-12.8418C14.4336-12.8418 14.0625-12.4609 14.0625-11.9141L14.0625-7.96875L10.1172-7.96875C9.57031-7.96875 9.19922-7.59766 9.19922-7.05078Z"/>
  </g>
  <text style="stroke:none;fill:black;font-family:sans-serif;font-size:13;font-weight:bold;" transform="matrix(1 0 0 1 263 1953)">Design Variations</text>
  <text style="stroke:none;fill:black;font-family:sans-serif;font-size:13;" transform="matrix(1 0 0 1 263 1971)">Symbols are supported in up to nine weights and three scales.</text>
  <text style="stroke:none;fill:black;font-family:sans-serif;font-size:13;" transform="matrix(1 0 0 1 263 1989)">For optimal layout with text and other symbols, vertically align</text>
  <text style="stroke:none;fill:black;font-family:sans-serif;font-size:13;" transform="matrix(1 0 0 1 263 2007)">symbols with the adjacent text.</text>
  <line style="fill:none;stroke:#00AEEF;stroke-width:0.5;opacity:1.0;" x1="776" x2="776" y1="1919" y2="1933"/>
  <g transform="matrix(1 0 0 1 776 1933)">
   <path d="M3.31055 0.15625C3.82812 0.15625 4.08203-0.0390625 4.26758-0.585938L5.52734-4.0332L11.2891-4.0332L12.5488-0.585938C12.7344-0.0390625 12.9883 0.15625 13.4961 0.15625C14.0137 0.15625 14.3457-0.15625 14.3457-0.644531C14.3457-0.810547 14.3164-0.966797 14.2383-1.17188L9.6582-13.3691C9.43359-13.9648 9.0332-14.2676 8.4082-14.2676C7.80273-14.2676 7.39258-13.9746 7.17773-13.3789L2.59766-1.16211C2.51953-0.957031 2.49023-0.800781 2.49023-0.634766C2.49023-0.146484 2.80273 0.15625 3.31055 0.15625ZM6.00586-5.51758L8.37891-12.0898L8.42773-12.0898L10.8008-5.51758Z"/>
  </g>
  <line style="fill:none;stroke:#00AEEF;stroke-width:0.5;opacity:1.0;" x1="793.197" x2="793.197" y1="1919" y2="1933"/>
  <text style="stroke:none;fill:black;font-family:sans-serif;font-size:13;font-weight:bold;" transform="matrix(1 0 0 1 776 1953)">Margins</text>
  <text style="stroke:none;fill:black;font-family:sans-serif;font-size:13;" transform="matrix(1 0 0 1 776 1971)">Leading and trailing margins on the left and right side of each symbol</text>
  <text style="stroke:none;fill:black;font-family:sans-serif;font-size:13;" transform="matrix(1 0 0 1 776 1989)">can be adjusted by modifying the x-location of the margin guidelines.</text>
  <text style="stroke:none;fill:black;font-family:sans-serif;font-size:13;" transform="matrix(1 0 0 1 776 2007)">Modifications are automatically applied proportionally to all</text>
  <text style="stroke:none;fill:black;font-family:sans-serif;font-size:13;" transform="matrix(1 0 0 1 776 2025)">scales and weights.</text>
  <g transform="matrix(1 0 0 1 1289 1933)">
   <path d="M2.8418 1.86523L4.54102 3.57422C5.40039 4.44336 6.38672 4.38477 7.31445 3.35938L18.0078-8.42773L17.041-9.4043L6.42578 2.27539C6.07422 2.67578 5.74219 2.77344 5.27344 2.30469L4.10156 1.14258C3.63281 0.683594 3.74023 0.341797 4.14062-0.0195312L15.6152-10.8203L14.6387-11.7871L3.04688-0.898438C2.06055 0.0195312 1.98242 0.996094 2.8418 1.86523ZM9.25781-16.3281C8.83789-15.918 8.80859-15.3418 9.04297-14.9512C9.27734-14.5898 9.73633-14.3555 10.3809-14.5215C11.8457-14.8633 13.3691-14.9219 14.7949-13.9844L14.209-12.5293C13.8672-11.6992 14.043-11.1133 14.5801-10.5664L16.875-8.25195C17.3633-7.76367 17.7734-7.74414 18.3398-7.8418L19.4043-8.03711L20.0684-7.36328L20.0293-6.80664C19.9902-6.30859 20.1172-5.92773 20.6055-5.44922L21.3672-4.70703C21.8457-4.22852 22.4609-4.19922 22.9297-4.66797L25.8398-7.58789C26.3086-8.05664 26.2891-8.65234 25.8105-9.13086L25.0391-9.89258C24.5605-10.3711 24.1895-10.5273 23.7109-10.4883L23.1348-10.4395L22.4902-11.0742L22.7344-12.1973C22.8613-12.7637 22.7051-13.2031 22.1191-13.7891L19.9219-15.9766C16.582-19.2969 12.1484-19.2188 9.25781-16.3281ZM10.752-15.957C13.1836-17.7344 16.4746-17.4316 18.7012-15.2051L21.1328-12.793C21.3672-12.5586 21.4062-12.373 21.3379-12.0312L21.0156-10.5469L22.5195-9.0625L23.5059-9.12109C23.7598-9.13086 23.8379-9.11133 24.0332-8.91602L24.6094-8.33984L22.168-5.89844L21.5918-6.47461C21.3965-6.66992 21.3672-6.74805 21.377-7.01172L21.4453-7.98828L19.9512-9.47266L18.4277-9.21875C18.1055-9.15039 17.959-9.17969 17.7148-9.41406L15.7129-11.416C15.459-11.6504 15.4297-11.8164 15.5859-12.1875L16.4648-14.2773C14.9023-15.7324 12.8711-16.3574 10.8398-15.7617C10.6836-15.7227 10.625-15.8496 10.752-15.957Z"/>
  </g>
  <text style="stroke:none;fill:black;font-family:sans-serif;font-size:13;font-weight:bold;" transform="matrix(1 0 0 1 1289 1953)">Exporting</text>
  <text style="stroke:none;fill:black;font-family:sans-serif;font-size:13;" transform="matrix(1 0 0 1 1289 1971)">Symbols should be outlined when exporting to ensure the</text>
  <text style="stroke:none;fill:black;font-family:sans-serif;font-size:13;" transform="matrix(1 0 0 1 1289 1989)">design is preserved when submitting to Xcode.</text>
  <text id="template-version" style="stroke:none;fill:black;font-family:sans-serif;font-size:13;text-anchor:end;" transform="matrix(1 0 0 1 3036 1933)">Template v.4.0</text>
  <text style="stroke:none;fill:black;font-family:sans-serif;font-size:13;text-anchor:end;" transform="matrix(1 0 0 1 3036 1951)">Requires Xcode 14 or greater</text>
  <text id="descriptive-name" style="stroke:none;fill:black;font-family:sans-serif;font-size:13;text-anchor:end;" transform="matrix(1 0 0 1 3036 1969)">Generated from bell</text>
  <text style="stroke:none;fill:black;font-family:sans-serif;font-size:13;text-anchor:end;" transform="matrix(1 0 0 1 3036 1987)">Typeset at 100 points</text>
  <text style="stroke:none;fill:black;font-family:sans-serif;font-size:13;" transform="matrix(1 0 0 1 263 726)">Small</text>
  <text style="stroke:none;fill:black;font-family:sans-serif;font-size:13;" transform="matrix(1 0 0 1 263 1156)">Medium</text>
  <text style="stroke:none;fill:black;font-family:sans-serif;font-size:13;" transform="matrix(1 0 0 1 263 1586)">Large</text>
 </g>
 <g id="Guides">
  <g id="H-reference" style="fill:#27AAE1;stroke:none;" transform="matrix(1 0 0 1 339 696)">
   <path d="M0.993654 0L3.63775 0L29.3281-67.1323L30.0303-67.1323L30.0303-70.459L28.1226-70.459ZM11.6885-24.4799L46.9815-24.4799L46.2315-26.7285L12.4385-26.7285ZM55.1196 0L57.7637 0L30.6382-70.459L29.4326-70.459L29.4326-67.1323Z"/>
  </g>
  <line id="Baseline-S" style="fill:none;stroke:#27AAE1;opacity:1;stroke-width:0.5;" x1="263" x2="3036" y1="696" y2="696"/>
  <line id="Capline-S" style="fill:none;stroke:#27AAE1;opacity:1;stroke-width:0.5;" x1="263" x2="3036" y1="625.541" y2="625.541"/>
  <g id="H-reference" style="fill:#27AAE1;stroke:none;" transform="matrix(1 0 0 1 339 1126)">
   <path d="M0.993654 0L3.63775 0L29.3281-67.1323L30.0303-67.1323L30.0303-70.459L28.1226-70.459ZM11.6885-24.4799L46.9815-24.4799L46.2315-26.7285L12.4385-26.7285ZM55.1196 0L57.7637 0L30.6382-70.459L29.4326-70.459L29.4326-67.1323Z"/>
  </g>
  <line id="Baseline-M" style="fill:none;stroke:#27AAE1;opacity:1;stroke-width:0.5;" x1="263" x2="3036" y1="1126" y2="1126"/>
  <line id="Capline-M" style="fill:none;stroke:#27AAE1;opacity:1;stroke-width:0.5;" x1="263" x2="3036" y1="1055.54" y2="1055.54"/>
  <g id="H-reference" style="fill:#27AAE1;stroke:none;" transform="matrix(1 0 0 1 339 1556)">
   <path d="M0.993654 0L3.63775 0L29.3281-67.1323L30.0303-67.1323L30.0303-70.459L28.1226-70.459ZM11.6885-24.4799L46.9815-24.4799L46.2315-26.7285L12.4385-26.7285ZM55.1196 0L57.7637 0L30.6382-70.459L29.4326-70.459L29.4326-67.1323Z"/>
  </g>
  <line id="Baseline-L" style="fill:none;stroke:#27AAE1;opacity:1;stroke-width:0.5;" x1="263" x2="3036" y1="1556" y2="1556"/>
  <line id="Capline-L" style="fill:none;stroke:#27AAE1;opacity:1;stroke-width:0.5;" x1="263" x2="3036" y1="1485.54" y2="1485.54"/>
  <line id="left-margin-Regular-M" style="fill:none;stroke:#00AEEF;stroke-width:0.5;opacity:1.0;" x1="1393.44" x2="1393.44" y1="1030.79" y2="1150.12"/>
  <line id="right-margin-Regular-M" style="fill:none;stroke:#00AEEF;stroke-width:0.5;opacity:1.0;" x1="1506.25" x2="1506.25" y1="1030.79" y2="1150.12"/>
 </g>
 <g id="Symbols">
  <g id="Black-L" transform="matrix(1 0 0 1 2855.95 1556)">
   <path d="M10.5592-3.31306C10.5592 4.58828 16.1153 9.88185 24.6862 9.88185L48.1832 9.88185C48.6818 21.8177 59.7217 34.0556 77.4549 34.0556C95.1674 34.0556 106.207 21.8385 106.727 9.88185L130.224 9.88185C138.795 9.88185 144.351 4.58828 144.351-3.31306C144.351-11.3404 138.998-17.3559 132.524-22.496C127.16-26.7052 126.27-34.3718 124.443-47.7377C122.345-68.5802 113.753-84.3268 98.2188-89.9401C94.9117-98.8118 87.1934-104.595 77.4549-104.595C67.7177-104.595 59.9982-98.8118 56.6911-89.9401C41.1573-84.3268 32.565-68.5802 30.4457-47.7377C28.6403-34.3718 27.7299-26.7052 22.3866-22.496C15.8919-17.3559 10.5592-11.3404 10.5592-3.31306ZM35.3372-8.62686L35.3372-9.31186C38.6114-10.9121 41.8609-13.1195 44.312-16.2611C47.9239-20.8984 49.6859-32.9832 50.6395-43.7807C51.9835-63.004 58.7704-70.6704 66.788-72.8294C68.1903-73.1559 69.0416-73.7849 69.3384-75.8845C69.9577-81.7357 72.9001-85.0598 77.4549-85.0598C81.989-85.0598 84.9522-81.7357 85.5518-75.8845C85.8487-73.7849 86.7196-73.1559 88.1011-72.8294C96.1395-70.6704 102.926-63.004 104.27-43.7807C105.225-32.9832 107.104-20.8984 110.598-16.2611C112.991-13.1195 115.716-10.9121 118.989-9.31186L118.989-8.62686ZM67.184 9.88185L87.7259 9.88185C87.3017 15.6543 83.0734 19.6706 77.4549 19.6706C71.8157 19.6706 67.6082 15.6543 67.184 9.88185Z"/>
  </g>
  <g id="Heavy-L" transform="matrix(1 0 0 1 2560.33 1556)">
   <path d="M11.2822-2.55504C11.2822 4.50359 16.3116 9.2324 24.177 9.2324L48.6176 9.2324C49.1079 21.1847 59.7313 32.9752 76.3611 32.9752C92.9606 32.9752 103.584 21.2149 104.104 9.2324L128.545 9.2324C136.411 9.2324 141.44 4.50359 141.44-2.55504C141.44-10.1777 135.856-16.1071 129.637-21.3438C124.483-25.6674 123.583-33.7972 122.033-45.9011C120.283-67.4684 112.21-83.1976 96.4404-88.8592C93.4339-97.582 85.966-103.515 76.3611-103.515C66.7618-103.515 59.2883-97.582 56.2817-88.8592C40.5121-83.1976 32.4387-67.4684 30.6594-45.9011C29.139-33.7972 28.2144-25.6674 23.0903-21.3438C16.842-16.1071 11.2822-10.1777 11.2822-2.55504ZM32.909-7.01464L32.909-7.71837C35.6533-9.42356 39.0507-12.0336 41.7246-15.3158C45.6345-20.1233 47.41-31.4801 48.3081-42.6929C49.4996-63.599 56.5515-71.5384 65.234-73.8948C66.6986-74.239 67.5622-74.9093 67.8077-76.8926C68.3515-82.9147 71.482-86.5404 76.3611-86.5404C81.21-86.5404 84.3706-82.9147 84.8898-76.8926C85.1354-74.9093 86.0235-74.239 87.458-73.8948C96.1707-71.5384 103.223-63.599 104.414-42.6929C105.318-31.4801 107.182-20.1233 110.998-15.3158C113.627-12.0336 116.628-9.42356 119.367-7.71837L119.367-7.01464ZM65.2978 9.2324L87.4244 9.2324C86.9865 15.6677 82.4515 20.0309 76.3611 20.0309C70.2405 20.0309 65.7357 15.6677 65.2978 9.2324Z"/>
  </g>
  <g id="Bold-L" transform="matrix(1 0 0 1 2264.84 1556)">
   <path d="M12.2035-1.49832C12.2035 4.50787 16.5499 8.52999 23.4574 8.52999L49.3418 8.52999C49.8094 20.4606 59.8733 31.6381 75.1428 31.6381C90.3742 31.6381 100.438 20.4986 100.944 8.52999L126.828 8.52999C133.736 8.52999 138.082 4.50787 138.082-1.49832C138.082-8.67363 132.273-14.4881 126.362-19.8326C121.328-24.4288 120.487-33.3659 119.178-44.3793C117.747-66.3612 110.26-81.9184 94.3172-87.5296C91.687-96.1127 84.534-102.178 75.1428-102.178C65.7647-102.178 58.5985-96.1127 55.9683-87.5296C40.026-81.9184 32.5383-66.3612 31.0698-44.3793C29.7985-33.3659 28.933-24.4288 23.9363-19.8326C17.9879-14.4881 12.2035-8.67363 12.2035-1.49832ZM29.9492-4.92741L29.9492-5.64674C32.0551-7.54961 35.6742-10.7038 38.6321-14.1702C43.0227-19.3044 44.6794-30.2241 45.5904-42.0114C46.6942-64.2994 53.9274-72.5843 63.3725-75.1642C64.9364-75.5388 65.8376-76.2554 66.0366-78.1301C66.5253-84.3299 69.8715-88.3172 75.1428-88.3172C80.376-88.3172 83.7602-84.3299 84.2242-78.1301C84.4231-76.2554 85.3491-75.5388 86.875-75.1642C96.3581-72.5843 103.591-64.2994 104.695-42.0114C105.619-30.2241 107.334-19.3044 111.653-14.1702C114.582-10.7038 117.952-7.54961 120.044-5.64674L120.044-4.92741ZM63.1556 8.52999L87.1299 8.52999C86.6766 15.7577 81.7799 20.5437 75.1428 20.5437C68.4676 20.5437 63.6089 15.7577 63.1556 8.52999Z"/>
  </g>
  <g id="Semibold-L" transform="matrix(1 0 0 1 1968.96 1556)">
   <path d="M12.8386-0.769824C12.8386 4.51083 16.7143 8.04575 22.9614 8.04575L49.8411 8.04575C50.293 19.9613 59.9712 30.7164 74.3029 30.7164C88.5912 30.7164 98.2693 20.0047 98.7646 8.04575L125.644 8.04575C131.891 8.04575 135.767 4.51083 135.767-0.769824C135.767-7.63674 129.803-13.3719 124.105-18.7909C119.152-23.5749 118.353-33.0685 117.21-43.3302C115.999-65.5979 108.915-81.0365 92.8534-86.613C90.4827-95.0998 83.5468-101.256 74.3029-101.256C65.0774-101.256 58.123-95.0998 55.7523-86.613C39.6908-81.0365 32.607-65.5979 31.3527-43.3302C30.2532-33.0685 29.4284-23.5749 24.5195-18.7909C18.7779-13.3719 12.8386-7.63674 12.8386-0.769824ZM27.9087-3.48849L27.9087-4.21858C29.5746-6.25772 33.3465-9.78705 36.5002-13.3803C41.2221-18.7398 42.797-29.3582 43.7168-41.5415C44.7602-64.7822 52.1183-73.3054 62.0892-76.0394C63.7215-76.435 64.6487-77.1834 64.8155-78.9832C65.2664-85.3056 68.7612-89.5421 74.3029-89.5421C79.8011-89.5421 83.3393-85.3056 83.7653-78.9832C83.9321-77.1834 84.8843-76.435 86.4732-76.0394C96.4874-73.3054 103.846-64.7822 104.889-41.5415C105.827-29.3582 107.439-18.7398 112.105-13.3803C115.241-9.78705 118.864-6.25772 120.511-4.21858L120.511-3.48849ZM61.6788 8.04575L86.9269 8.04575C86.463 15.8197 81.3169 20.8972 74.3029 20.8972C67.2454 20.8972 62.1427 15.8197 61.6788 8.04575Z"/>
  </g>
  <g id="Medium-L" transform="matrix(1 0 0 1 1672.89 1556)">
   <path d="M13.3202-0.217447C13.3202 4.51307 16.8388 7.67858 22.5853 7.67858L50.2196 7.67858C50.6597 19.5828 60.0454 30.0175 73.666 30.0175C87.2392 30.0175 96.6248 19.6302 97.1124 7.67858L124.747 7.67858C130.493 7.67858 134.012 4.51307 134.012-0.217447C134.012-6.85052 127.93-12.5256 122.393-18.001C117.503-22.9275 116.734-32.8431 115.717-42.5347C114.673-65.0191 107.895-80.3678 91.7435-85.9179C89.5696-94.3317 82.7983-100.557 73.666-100.557C64.5562-100.557 57.7624-94.3317 55.5885-85.9179C39.4367-80.3678 32.6591-65.0191 31.5673-42.5347C30.5979-32.8431 29.804-22.9275 24.9618-18.001C19.3769-12.5256 13.3202-6.85052 13.3202-0.217447ZM26.3615-2.39744L26.3615-3.13568C27.6937-5.27816 31.5815-9.09193 34.8837-12.7814C39.8569-18.3118 41.3697-28.7017 42.2962-41.1853C43.2937-65.1483 50.7466-73.8521 61.1161-76.7029C62.8003-77.1144 63.7472-77.8871 63.8897-79.63C64.3118-86.0454 67.9194-90.4709 73.666-90.4709C79.3652-90.4709 83.0202-86.0454 83.4174-79.63C83.5598-77.8871 84.5318-77.1144 86.1684-76.7029C96.5854-73.8521 104.038-65.1483 105.036-41.1853C105.985-28.7017 107.519-18.3118 112.448-12.7814C115.74-9.09193 119.556-5.27816 120.865-3.13568L120.865-2.39744ZM60.559 7.67858L86.773 7.67858C86.301 15.8667 80.9659 21.1652 73.666 21.1652C66.3187 21.1652 61.031 15.8667 60.559 7.67858Z"/>
  </g>
  <g id="Regular-L" transform="matrix(1 0 0 1 1377.01 1556)">
   <path d="M13.9483 0.503045C13.9483 4.516 17.0014 7.19967 22.0947 7.19967L50.7134 7.19967C51.1381 19.0891 60.1421 29.1059 72.8353 29.1059C85.4758 29.1059 94.4799 19.1418 94.9573 7.19967L123.576 7.19967C128.669 7.19967 131.722 4.516 131.722 0.503045C131.722-5.82502 125.487-11.4217 120.16-16.9706C115.352-22.083 114.623-32.549 113.771-41.4972C112.944-64.2642 106.565-79.4956 90.2959-85.0114C88.3785-93.3299 81.822-99.6453 72.8353-99.6453C63.8764-99.6453 57.2921-93.3299 55.3748-85.0114C39.1053-79.4956 32.727-64.2642 31.8471-41.4972C31.0476-32.549 30.294-22.083 25.5386-16.9706C20.1581-11.4217 13.9483-5.82502 13.9483 0.503045ZM24.3435-0.974326L24.3435-1.72321C25.2405-4.00047 29.2793-8.18525 32.7752-12.0003C38.0761-17.7535 39.5079-27.8454 40.4432-40.7206C41.381-65.6259 48.9575-74.5652 59.8469-77.5684C61.5987-78.0007 62.5714-78.8049 62.682-80.4737C63.0667-87.0103 66.8213-91.6823 72.8353-91.6823C78.7966-91.6823 82.604-87.0103 82.9635-80.4737C83.0742-78.8049 84.072-78.0007 85.771-77.5684C96.7132-74.5652 104.29-65.6259 105.228-40.7206C106.19-27.8454 107.622-17.7535 112.895-12.0003C116.391-8.18525 120.458-4.00047 121.327-1.72321L121.327-0.974326ZM59.0984 7.19967L86.5722 7.19967C86.0897 15.928 80.508 21.5148 72.8353 21.5148C65.1099 21.5148 59.581 15.928 59.0984 7.19967Z"/>
  </g>
  <g id="Light-L" transform="matrix(1 0 0 1 1080.26 1556)">
   <path d="M14.7499 1.9917C14.7499 5.22215 17.135 7.37143 21.0259 7.37143L52.412 7.37143C52.7412 18.9746 61.0773 28.1898 72.8735 28.1898C84.636 28.1898 92.9721 19.0082 93.335 7.37143L124.721 7.37143C128.612 7.37143 130.997 5.22215 130.997 1.9917C130.997-4.37454 125.01-9.83758 119.835-15.3866C114.206-21.5295 113.974-34.0567 112.645-45.2951C111.302-65.2376 104.962-79.381 89.3416-84.1525C87.7106-92.662 81.4021-98.7292 72.8735-98.7292C64.3917-98.7292 58.0365-92.662 56.4054-84.1525C40.7848-79.381 34.4447-65.2376 33.0685-45.2951C31.7728-34.0567 31.5536-21.5295 25.9585-15.3866C20.7498-9.83758 14.7499-4.37454 14.7499 1.9917ZM22.6067 1.04871L22.6067 0.337998C23.1793-2.51182 27.6189-7.36458 31.3629-11.3705C37.7135-18.097 38.1911-30.8799 39.6607-44.5377C41.1901-65.874 47.946-75.0996 58.969-78.1219C60.9307-78.6305 62.0752-79.4347 62.2622-81.2562C62.8567-87.6974 66.6495-92.5412 72.8735-92.5412C79.0638-92.5412 82.8903-87.6974 83.4979-81.2562C83.6849-79.4347 84.8163-78.6305 86.7443-78.1219C97.8011-75.0996 104.557-65.874 106.086-44.5377C107.603-30.8799 108.08-18.097 114.384-11.3705C118.128-7.36458 122.615-2.51182 123.14 0.337998L123.14 1.04871ZM58.8694 7.37143L86.8776 7.37143C86.3951 16.4624 80.6798 22.2973 72.8735 22.2973C65.0336 22.2973 59.3519 16.4624 58.8694 7.37143Z"/>
  </g>
  <g id="Thin-L" transform="matrix(1 0 0 1 783.498 1556)">
   <path d="M15.8101 3.96056C15.8101 6.1561 17.3117 7.59861 19.6124 7.59861L54.6585 7.59861C54.8615 18.8231 62.3142 26.9782 72.924 26.9782C83.5254 26.9782 90.978 18.8315 91.1895 7.59861L126.236 7.59861C128.536 7.59861 130.038 6.1561 130.038 3.96056C130.038-2.45616 124.379-7.74251 119.406-13.2915C112.692-20.7975 113.116-36.0508 111.156-50.3183C109.132-66.5249 102.842-79.2296 88.0795-83.0167C86.8271-91.7785 80.8468-97.5176 72.924-97.5176C65.0732-97.5176 59.0209-91.7785 57.7685-83.0167C43.0061-79.2296 36.7164-66.5249 34.684-50.3183C32.732-36.0508 33.2196-20.7975 26.5138-13.2915C21.5323-7.74251 15.8101-2.45616 15.8101 3.96056ZM20.3097 3.72435L20.3097 3.06411C20.4531-0.542957 25.4229-6.27919 29.495-10.5375C37.2339-18.5513 36.4494-34.8934 38.6258-49.586C40.9377-66.2021 46.6082-75.8064 57.8079-78.8539C60.0473-79.4635 61.4189-80.2677 61.7068-82.2912C62.5791-88.6061 66.4224-93.677 72.924-93.677C79.4172-93.677 83.2689-88.6061 84.2047-82.2912C84.4926-80.2677 85.8007-79.4635 88.0317-78.8539C99.2398-75.8064 104.91-66.2021 107.222-49.586C109.471-34.8934 108.686-18.5513 116.353-10.5375C120.425-6.27919 125.467-0.542957 125.538 3.06411L125.538 3.72435ZM58.5665 7.59861L87.2815 7.59861C86.799 17.1691 80.9069 23.3322 72.924 23.3322C64.9326 23.3322 59.049 17.1691 58.5665 7.59861Z"/>
  </g>
  <g id="Ultralight-L" transform="matrix(1 0 0 1 486.761 1556)">
   <path d="M16.3531 4.969C16.3531 6.63446 17.4022 7.71497 18.8884 7.71497L55.8092 7.71497C55.9475 18.7455 62.9477 26.3576 72.9499 26.3576C82.9565 26.3576 89.9567 18.741 90.0905 7.71497L127.011 7.71497C128.498 7.71497 129.547 6.63446 129.547 4.969C129.547-1.47358 124.056-6.66943 119.186-12.2184C111.916-20.4226 112.676-37.0722 110.393-52.8911C108.02-67.1843 101.756-79.152 87.4331-82.4349C86.3746-91.326 80.5623-96.897 72.9499-96.897C65.4223-96.897 59.5251-91.326 58.4666-82.4349C44.1438-79.152 37.88-67.1843 35.5115-52.8911C33.2233-37.0722 34.0729-20.4226 26.7983-12.2184C21.9331-6.66943 16.3531-1.47358 16.3531 4.969ZM19.1332 5.09479L19.1332 4.46042C19.0568 0.465485 24.2981-5.72325 28.5383-10.1109C36.9882-18.7841 35.5573-36.9491 38.0957-52.1718C40.8084-66.3702 45.9229-76.1684 57.2132-79.2288C59.5948-79.8902 61.0828-80.6944 61.4224-82.8212C62.4369-89.0715 66.306-94.2588 72.9499-94.2588C79.5982-94.2588 83.4628-89.0715 84.5667-82.8212C84.9064-80.6944 86.3049-79.8902 88.691-79.2288C99.9768-76.1684 105.091-66.3702 107.804-52.1718C110.427-36.9491 108.996-18.7841 117.361-10.1109C121.602-5.72325 126.928 0.465485 126.766 4.46042L126.766 5.09479ZM58.4114 7.71497L87.4883 7.71497C87.0058 17.5311 81.0233 23.8623 72.9499 23.8623C64.8809 23.8623 58.8939 17.5311 58.4114 7.71497Z"/>
  </g>
  <g id="Black-M" transform="matrix(1 0 0 1 2872.45 1126)">
   <path d="M7.6678-10.9523C7.6678-4.21252 12.3345 0.301587 19.4183 0.301587L37.1863 0.301587C37.5668 9.49587 46.3873 19.2529 60.9529 19.2529C75.513 19.2529 84.3335 9.50136 84.7194 0.301587L102.488 0.301587C109.571 0.301587 114.238-4.21252 114.238-10.9523C114.238-17.5243 110.324-22.2406 105.109-26.14C100.662-29.4423 100.047-35.2632 98.331-47.013C96.335-62.1551 89.2375-74.2222 77.4934-78.4287C74.7117-85.4557 68.5504-89.7742 60.9529-89.7742C53.3551-89.7742 47.1941-85.4557 44.4124-78.4287C32.6683-74.2222 25.5707-62.1551 23.5693-47.013C21.8586-35.2632 21.2378-29.4423 16.796-26.14C11.5757-22.2406 7.6678-17.5243 7.6678-10.9523ZM29.2287-15.7308L29.2287-16.2402C32.1769-17.4674 34.6216-18.922 36.3627-21.2609C39.047-24.8393 40.2712-35.1923 41.1302-43.3065C42.3827-56.2699 47.3019-62.0135 52.96-63.5191C54.0213-63.7672 54.6937-64.2189 54.978-65.9662C55.5511-70.3396 57.6743-72.679 60.9529-72.679C64.226-72.679 66.3547-70.3396 66.922-65.9662C67.2063-64.2189 67.8845-63.7672 68.9403-63.5191C74.6039-62.0135 79.5231-56.2699 80.7756-43.3065C81.6343-35.1923 82.9726-24.8393 85.5431-21.2609C87.227-18.922 89.1577-17.4674 92.1061-16.2402L92.1061-15.7308ZM53.6404 0.301587L68.2654 0.301587C67.9487 4.25324 64.9182 7.10034 60.9529 7.10034C56.9821 7.10034 53.9571 4.25324 53.6404 0.301587Z"/>
  </g>
  <g id="Heavy-M" transform="matrix(1 0 0 1 2576.81 1126)">
   <path d="M8.3007-10.3486C8.3007-4.36047 12.5141-0.349139 19.0191-0.349139L37.4543-0.349139C37.8355 8.88764 46.3105 18.2813 59.88 18.2813C73.4332 18.2813 81.9082 8.90405 82.3057-0.349139L100.741-0.349139C107.246-0.349139 111.459-4.36047 111.459-10.3486C111.459-16.5215 107.296-21.166 102.317-25.1597C98.1507-28.4788 97.4809-34.5623 96.078-44.8673C94.4712-60.9784 87.8774-73.1289 75.8429-77.4513C73.3286-84.3152 67.3893-88.8026 59.88-88.8026C52.3731-88.8026 46.4314-84.3152 43.9171-77.4513C31.8827-73.1289 25.2888-60.9784 23.6656-44.8673C22.2791-34.5623 21.5952-28.4788 17.4451-25.1597C12.4499-21.166 8.3007-16.5215 8.3007-10.3486ZM27.0152-14.3414L27.0152-14.8726C29.4753-16.1496 32.0276-17.9362 33.9636-20.395C36.8425-24.0499 38.1679-33.4428 38.9233-41.891C39.9721-56.8286 45.226-62.8127 51.5219-64.5095C52.6248-64.7678 53.2932-65.26 53.5204-66.8795C54.0003-71.4288 56.3038-74.0472 59.88-74.0472C63.4398-74.0472 65.7597-71.4288 66.2255-66.8795C66.4527-65.26 67.1353-64.7678 68.2217-64.5095C74.534-62.8127 79.7879-56.8286 80.8368-41.891C81.5944-33.4428 83.007-24.0499 85.7964-20.395C87.6888-17.9362 89.8508-16.1496 92.3086-14.8726L92.3086-14.3414ZM51.8176-0.349139L67.9425-0.349139C67.6123 4.21703 64.2944 7.38034 59.88 7.38034C55.4492 7.38034 52.1478 4.21703 51.8176-0.349139Z"/>
  </g>
  <g id="Bold-M" transform="matrix(1 0 0 1 2281.3 1126)">
   <path d="M9.00869-9.67328C9.00869-4.52596 12.715-1.07707 18.5725-1.07707L37.7541-1.07707C38.136 8.20725 46.2245 17.1944 58.6799 17.1944C71.1066 17.1944 79.1951 8.23587 79.6056-1.07707L98.7872-1.07707C104.645-1.07707 108.351-4.52596 108.351-9.67328C108.351-15.3998 103.908-19.964 99.1936-24.0631C95.3412-27.401 94.6101-33.7784 93.5578-42.467C92.3863-59.6622 86.3559-71.9059 73.9966-76.3579C71.7814-83.0394 66.0903-87.7157 58.6799-87.7157C51.2746-87.7157 45.5783-83.0394 43.3631-76.3579C31.0038-71.9059 24.9735-59.6622 23.7733-42.467C22.7496-33.7784 21.995-27.401 18.1713-24.0631C13.4279-19.964 9.00869-15.3998 9.00869-9.67328ZM24.5392-12.7871L24.5392-13.3428C26.4531-14.6754 29.1259-16.8334 31.2799-19.4263C34.3764-23.1668 35.8151-31.4859 36.4545-40.3075C37.2755-57.4537 42.9039-63.7067 49.9131-65.6175C51.0625-65.8872 51.7266-66.4246 51.8899-67.9012C52.2656-72.6472 54.7707-75.5777 58.6799-75.5777C62.5604-75.5777 65.0942-72.6472 65.4464-67.9012C65.6097-66.4246 66.2972-65.8872 67.418-65.6175C74.4559-63.7067 80.0842-57.4537 80.9052-40.3075C81.5498-31.4859 83.0455-23.1668 86.0798-19.4263C88.2053-16.8334 90.6262-14.6754 92.5351-13.3428L92.5351-12.7871ZM49.7785-1.07707L67.5813-1.07707C67.236 4.17653 63.5966 7.69357 58.6799 7.69357C53.7345 7.69357 50.1237 4.17653 49.7785-1.07707Z"/>
  </g>
  <g id="Semibold-M" transform="matrix(1 0 0 1 1985.41 1126)">
   <path d="M9.49678-9.20773C9.49678-4.64005 12.8535-1.5789 18.2646-1.5789L37.9608-1.5789C38.3432 7.73819 46.1653 16.4451 57.8525 16.4451C69.5027 16.4451 77.3247 7.77523 77.7442-1.5789L97.4403-1.5789C102.851-1.5789 106.208-4.64005 106.208-9.20773C106.208-14.6264 101.573-19.1352 97.0402-23.3072C93.4044-26.658 92.6311-33.2379 91.8204-40.8123C90.9489-58.7547 85.307-71.0627 72.7238-75.6041C70.7148-82.1598 65.1948-86.9664 57.8525-86.9664C50.5173-86.9664 44.9901-82.1598 42.9812-75.6041C30.398-71.0627 24.756-58.7547 23.8475-40.8123C23.0739-33.2379 22.2706-26.658 18.6719-23.3072C14.1022-19.1352 9.49678-14.6264 9.49678-9.20773ZM22.8322-11.7156L22.8322-12.2881C24.3697-13.6591 27.1254-16.0732 29.4298-18.7585C32.6763-22.558 34.193-30.1367 34.7526-39.2159C35.4165-57.8846 41.303-64.3231 48.804-66.3813C49.9855-66.6589 50.6465-67.2275 50.7658-68.6056C51.0696-73.4871 53.7138-76.6329 57.8525-76.6329C61.9541-76.6329 64.6353-73.4871 64.9093-68.6056C65.0285-67.2275 65.7194-66.6589 66.8639-66.3813C74.402-64.3231 80.2885-57.8846 80.9523-39.2159C81.5191-30.1367 83.0721-22.558 86.2752-18.7585C88.5614-16.0732 91.1608-13.6591 92.6912-12.2881L92.6912-11.7156ZM48.3727-1.5789L67.3322-1.5789C66.9766 4.14861 63.1155 7.9095 57.8525 7.9095C52.5524 7.9095 48.7284 4.14861 48.3727-1.5789Z"/>
  </g>
  <g id="Medium-M" transform="matrix(1 0 0 1 1689.33 1126)">
   <path d="M9.86687-8.85474C9.86687-4.72656 12.9586-1.95941 18.0312-1.95941L38.1175-1.95941C38.5003 7.38253 46.1203 15.8769 57.2251 15.8769C68.2865 15.8769 75.9065 7.42596 76.3328-1.95941L96.4191-1.95941C101.492-1.95941 104.583-4.72656 104.583-8.85474C104.583-14.04 99.802-18.5069 95.4074-22.7339C91.9358-26.0946 91.1304-32.8281 90.503-39.5576C89.8591-58.0667 84.5116-70.4234 71.7586-75.0325C69.9061-81.4929 64.5158-86.3982 57.2251-86.3982C49.943-86.3982 44.5442-81.4929 42.6916-75.0325C29.9386-70.4234 24.5912-58.0667 23.9038-39.5576C23.3198-32.8281 22.4796-26.0946 19.0515-22.7339C14.6134-18.5069 9.86687-14.04 9.86687-8.85474ZM21.5379-10.9031L21.5379-11.4884C22.79-12.8885 25.6086-15.4967 28.0269-18.2522C31.3872-22.0964 32.9631-29.1138 33.4622-38.3882C34.0069-58.2113 40.0891-64.7904 47.9631-66.9604C49.1689-67.2441 49.8276-67.8363 49.9134-69.1396C50.1628-74.124 52.9124-77.4329 57.2251-77.4329C61.4944-77.4329 64.2874-74.124 64.502-69.1396C64.5878-67.8363 65.2813-67.2441 66.4437-66.9604C74.3611-64.7904 80.4434-58.2113 80.9881-38.3882C81.4958-29.1138 83.0922-22.0964 86.4233-18.2522C88.8314-15.4967 91.5661-12.8885 92.8096-11.4884L92.8096-10.9031ZM47.3068-1.95941L67.1434-1.95941C66.7799 4.12744 62.7508 8.07323 57.2251 8.07323C51.656 8.07323 47.6704 4.12744 47.3068-1.95941Z"/>
  </g>
  <g id="Regular-M" transform="matrix(1 0 0 1 1393.44 1126)">
   <path d="M10.3496-8.3943C10.3496-4.8394 13.0955-2.45572 17.7267-2.45572L38.3219-2.45572C38.7052 6.91863 46.0617 15.1358 56.4068 15.1358C66.7002 15.1358 74.0567 6.97038 74.4918-2.45572L95.087-2.45572C99.7182-2.45572 102.464-4.8394 102.464-8.3943C102.464-13.2752 97.4923-17.6873 93.2777-21.9863C90.0203-25.3597 89.1731-32.2936 88.7847-37.921C88.4375-57.1693 83.4743-69.5895 70.4998-74.287C68.8512-80.623 63.6302-85.6571 56.4068-85.6571C49.1941-85.6571 43.9625-80.623 42.3139-74.287C29.3394-69.5895 24.3762-57.1693 23.9772-37.921C23.6406-32.2936 22.7522-25.3597 19.5466-21.9863C15.2802-17.6873 10.3496-13.2752 10.3496-8.3943ZM19.8496-9.84341L19.8496-10.4454C20.7294-11.8834 23.6301-14.7448 26.1972-17.5918C29.7058-21.4943 31.3589-27.7795 31.7789-37.3085C32.1683-58.6375 38.5058-65.4 46.8662-67.7158C48.1038-68.0073 48.7595-68.6303 48.8017-69.8362C48.98-74.9547 51.8672-78.4765 56.4068-78.4765C60.8948-78.4765 63.8337-74.9547 63.9708-69.8362C64.013-68.6303 64.7099-68.0073 65.8957-67.7158C74.3079-65.4 80.6454-58.6375 81.0348-37.3085C81.4653-27.7795 83.1185-21.4943 86.6165-17.5918C89.1836-14.7448 92.0948-11.8834 92.9641-10.4454L92.9641-9.84341ZM45.9166-2.45572L66.8971-2.45572C66.5233 4.09982 62.275 8.28679 56.4068 8.28679C50.4869 8.28679 46.2904 4.09982 45.9166-2.45572Z"/>
  </g>
  <g id="Light-M" transform="matrix(1 0 0 1 1096.69 1126)">
   <path d="M11.0682-7.05965C11.0682-4.20629 13.2153-2.30173 16.7685-2.30173L39.8447-2.30173C40.1426 6.81596 46.9002 14.3145 56.4411 14.3145C65.9473 14.3145 72.7049 6.8506 73.0374-2.30173L96.1136-2.30173C99.6668-2.30173 101.814-4.20629 101.814-7.05965C101.814-11.9747 97.0645-16.267 92.9868-20.5661C88.9936-24.8635 88.5913-33.6454 87.7752-41.3261C86.966-58.0419 82.0369-69.4869 69.6442-73.517C68.2523-80.0241 63.2537-84.8358 56.4411-84.8358C49.6561-84.8358 44.6298-80.0241 43.2379-73.517C30.8452-69.4869 25.9161-58.0419 25.0723-41.3261C24.2908-33.6454 23.8815-24.8635 19.923-20.5661C15.8106-16.267 11.0682-11.9747 11.0682-7.05965ZM18.2925-8.02965L18.2925-8.59737C18.8815-10.5487 22.1415-14.0091 24.9309-17.0271C29.3807-21.8023 30.1782-30.5001 31.0774-40.7307C31.9972-58.8599 37.599-65.8791 46.0791-68.2121C47.5049-68.5719 48.3146-69.195 48.4252-70.5378C48.7918-75.5707 51.7132-79.2464 56.4411-79.2464C61.1343-79.2464 64.0903-75.5707 64.4499-70.5378C64.5606-69.195 65.3773-68.5719 66.7684-68.2121C75.2832-65.8791 80.8849-58.8599 81.8047-40.7307C82.7316-30.5001 83.5291-21.8023 87.9512-17.0271C90.7407-14.0091 94.0283-10.5487 94.5896-8.59737L94.5896-8.02965ZM45.7112-2.30173L67.1709-2.30173C66.7971 4.57893 62.429 8.98834 56.4411 8.98834C50.4185 8.98834 46.085 4.57893 45.7112-2.30173Z"/>
  </g>
  <g id="Thin-M" transform="matrix(1 0 0 1 799.936 1126)">
   <path d="M12.0187-5.29446C12.0187-3.36896 13.3737-2.09805 15.5012-2.09805L41.8589-2.09805C42.0435 6.68018 48.0091 13.2282 56.4863 13.2282C64.9516 13.2282 70.9171 6.69219 71.1138-2.09805L97.4715-2.09805C99.5989-2.09805 100.954-3.36896 100.954-5.29446C100.954-10.2548 96.4987-14.3887 92.6021-18.6877C87.6358-24.2072 87.8219-35.4332 86.44-45.8296C85.0198-59.1961 80.136-69.3511 68.5127-72.4987C67.4603-79.232 62.7559-83.7495 56.4863-83.7495C50.2671-83.7495 45.5124-79.232 44.4599-72.4987C32.8367-69.3511 27.9529-59.1961 26.5207-45.8296C25.1508-35.4332 25.3752-24.2072 20.4209-18.6877C16.5122-14.3887 12.0187-10.2548 12.0187-5.29446ZM16.2331-5.6308L16.2331-6.15327C16.4373-8.78353 20.1726-13.036 23.2563-16.2803C28.9507-22.2097 28.6167-34.0984 30.1495-45.2569C31.7709-59.1541 36.3995-66.5128 45.0381-68.8683C46.7128-69.3187 47.7262-69.9418 47.9274-71.4656C48.5429-76.3854 51.5095-80.2648 56.4863-80.2648C61.4512-80.2648 64.4298-76.3854 65.0836-71.4656C65.2848-69.9418 66.2598-69.3187 67.9225-68.8683C76.5731-66.5128 81.2018-59.1541 82.8231-45.2569C84.4062-34.0984 84.0723-22.2097 89.7164-16.2803C92.8001-13.036 96.5856-8.78353 96.7395-6.15327L96.7395-5.6308ZM45.4397-2.09805L67.533-2.09805C67.1592 5.21259 62.6327 9.91619 56.4863 9.91619C50.3279 9.91619 45.8135 5.21259 45.4397-2.09805Z"/>
  </g>
  <g id="Ultralight-M" transform="matrix(1 0 0 1 503.202 1126)">
   <path d="M12.5056-4.39034C12.5056-2.94008 13.4549-1.99373 14.8521-1.99373L42.8905-1.99373C43.0172 6.61063 48.577 12.6719 56.5095 12.6719C64.4416 12.6719 70.0014 6.61105 70.1285-1.99373L98.1669-1.99373C99.5642-1.99373 100.513-2.94008 100.513-4.39034C100.513-9.37388 96.209-13.4266 92.405-17.7257C86.9403-23.8711 87.4278-36.3489 85.7561-48.1363C84.0229-59.7872 79.1623-69.2815 67.9332-71.977C67.0546-78.8264 62.5009-83.1931 56.5095-83.1931C50.58-83.1931 45.9644-78.8264 45.0859-71.977C33.8567-69.2815 28.9961-59.7872 27.2625-48.1363C25.5912-36.3489 26.1402-23.8711 20.6759-17.7257C16.8715-13.4266 12.5056-9.37388 12.5056-4.39034ZM15.1783-4.40213L15.1783-4.90141C15.1855-7.87941 19.1642-12.5375 22.3985-15.8978C28.7305-22.4183 27.8169-35.9414 29.6743-47.5751C31.655-59.3048 35.7852-66.8373 44.5049-69.2045C46.3071-69.7012 47.4248-70.3243 47.6723-71.9409C48.4154-76.8027 51.4052-80.7864 56.5095-80.7864C61.6134-80.7864 64.6036-76.8027 65.4081-71.9409C65.6557-70.3243 66.7119-69.7012 68.5137-69.2045C77.2338-66.8373 81.364-59.3048 83.3447-47.5751C85.264-35.9414 84.3504-22.4183 90.6205-15.8978C93.8549-12.5375 97.8954-7.87941 97.8407-4.90141L97.8407-4.40213ZM45.3006-1.99373L67.7185-1.99373C67.3446 5.53714 62.737 10.3914 56.5095 10.3914C50.2816 10.3914 45.6744 5.53714 45.3006-1.99373Z"/>
  </g>
  <g id="Black-S" transform="matrix(1 0 0 1 2885.3 696)">
   <path d="M5.85938-16.3086C5.85938-10.8398 9.61914-7.17773 15.2832-7.17773L29.1504-7.17773C29.4434 0 36.4258 7.71484 48.0957 7.71484C59.7656 7.71484 66.748 0 67.041-7.17773L80.9082-7.17773C86.5723-7.17773 90.332-10.8398 90.332-16.3086C90.332-21.582 87.3535-25.293 83.2031-28.3203C79.5898-30.957 79.1504-35.5469 77.6855-45.3125C75.9766-56.7383 70.2637-66.1133 61.1816-69.3359C58.9355-74.9023 54.0527-78.2227 48.0957-78.2227C42.1387-78.2227 37.2559-74.9023 35.0098-69.3359C25.9277-66.1133 20.2148-56.7383 18.5059-45.3125C17.041-35.5469 16.6016-30.957 12.9883-28.3203C8.83789-25.293 5.85938-21.582 5.85938-16.3086ZM23.4863-20.2637L23.4863-20.6543C25.9277-21.6309 27.832-22.7051 29.1504-24.5117C31.25-27.3438 32.1289-35.8887 32.8613-42.1875C33.9355-51.5625 37.6465-56.0059 41.8945-57.1289C42.7246-57.3242 43.2617-57.666 43.5059-59.082C43.9941-62.4512 45.6055-64.209 48.0957-64.209C50.5859-64.209 52.1973-62.4512 52.6855-59.082C52.9297-57.666 53.4668-57.3242 54.2969-57.1289C58.5449-56.0059 62.2559-51.5625 63.3301-42.1875C64.0625-35.8887 65.0391-27.3438 67.041-24.5117C68.3105-22.7051 69.7754-21.6309 72.2168-20.6543L72.2168-20.2637ZM42.5781-7.17773L53.6133-7.17773C53.3691-4.24805 51.0742-2.09961 48.0957-2.09961C45.1172-2.09961 42.8223-4.24805 42.5781-7.17773Z"/>
  </g>
  <g id="Heavy-S" transform="matrix(1 0 0 1 2589.52 696)">
   <path d="M6.30883-15.9629C6.30883-11.0473 9.75743-7.75396 15.0642-7.75396L29.185-7.75396C29.4895-0.507076 36.2529 6.9888 47.1737 6.9888C58.0831 6.9888 64.8465-0.495552 65.1625-7.75396L79.2833-7.75396C84.5901-7.75396 88.0387-11.0473 88.0387-15.9629C88.0387-20.8906 84.8181-24.5554 80.8521-27.6634C77.5731-30.1964 77.0299-34.7747 75.8877-43.0422C74.5706-55.6204 69.2841-65.1913 59.8794-68.5984C57.8292-74.0034 53.1077-77.4966 47.1737-77.4966C41.2398-77.4966 36.5183-74.0034 34.4681-68.5984C25.0634-65.1913 19.7769-55.6204 18.4482-43.0422C17.3176-34.7747 16.7629-30.1964 13.4954-27.6634C9.51783-24.5554 6.30883-20.8906 6.30883-15.9629ZM21.7922-19.3071L21.7922-19.7208C23.8533-20.6743 25.8037-21.956 27.2604-23.8433C29.4061-26.6292 30.4809-34.0448 31.0635-40.5395C31.8957-52.012 35.987-56.6282 40.7651-57.9126C41.6067-58.1079 42.1208-58.4843 42.3073-59.7735C42.6919-63.304 44.453-65.2808 47.1737-65.2808C49.8829-65.2808 51.6556-63.304 52.0287-59.7735C52.2152-58.4843 52.7408-58.1079 53.5708-57.9126C58.3605-56.6282 62.4518-52.012 63.284-40.5395C63.8666-34.0448 65.016-26.6292 67.0871-23.8433C68.5065-21.956 70.1211-20.6743 72.1822-19.7208L72.1822-19.3071ZM41.0454-7.75396L53.3021-7.75396C53.0465-4.34024 50.521-1.94979 47.1737-1.94979C43.8149-1.94979 41.301-4.34024 41.0454-7.75396Z"/>
  </g>
  <g id="Bold-S" transform="matrix(1 0 0 1 2293.84 696)">
   <path d="M6.81152-15.5762C6.81152-11.2793 9.91211-8.39844 14.8193-8.39844L29.2236-8.39844C29.541-1.07422 36.0596 6.17676 46.1426 6.17676C56.2012 6.17676 62.7197-1.0498 63.0615-8.39844L77.4658-8.39844C82.373-8.39844 85.4736-11.2793 85.4736-15.5762C85.4736-20.1172 81.9824-23.7305 78.2227-26.9287C75.3174-29.3457 74.6582-33.9111 73.877-40.5029C72.998-54.3701 68.1885-64.1602 58.4229-67.7734C56.5918-72.998 52.0508-76.6846 46.1426-76.6846C40.2344-76.6846 35.6934-72.998 33.8623-67.7734C24.0967-64.1602 19.2871-54.3701 18.3838-40.5029C17.627-33.9111 16.9434-29.3457 14.0625-26.9287C10.2783-23.7305 6.81152-20.1172 6.81152-15.5762ZM19.8975-18.2373L19.8975-18.6768C21.5332-19.6045 23.5352-21.1182 25.1465-23.0957C27.3438-25.8301 28.6377-31.9824 29.0527-38.6963C29.6143-52.5146 34.1309-57.3242 39.502-58.7891C40.3564-58.9844 40.8447-59.3994 40.9668-60.5469C41.2354-64.2578 43.1641-66.4795 46.1426-66.4795C49.0967-66.4795 51.0498-64.2578 51.2939-60.5469C51.416-59.3994 51.9287-58.9844 52.7588-58.7891C58.1543-57.3242 62.6709-52.5146 63.2324-38.6963C63.6475-31.9824 64.9902-25.8301 67.1387-23.0957C68.7256-21.1182 70.5078-19.6045 72.1436-18.6768L72.1436-18.2373ZM39.3311-8.39844L52.9541-8.39844C52.6855-4.44336 49.9023-1.78223 46.1426-1.78223C42.3584-1.78223 39.5996-4.44336 39.3311-8.39844Z"/>
  </g>
  <g id="Semibold-S" transform="matrix(1 0 0 1 1997.84 696)">
   <path d="M7.15811-15.3096C7.15811-11.4393 10.0188-8.84277 14.6505-8.84277L29.2503-8.84277C29.5766-1.46523 35.9263 5.61689 45.4316 5.61689C54.9037 5.61689 61.2534-1.43193 61.613-8.84277L76.2128-8.84277C80.8445-8.84277 83.7052-11.4393 83.7052-15.3096C83.7052-19.584 80.0273-23.1617 76.4098-26.4222C73.7622-28.7592 73.023-33.3157 72.4906-38.7522C71.9139-53.5081 67.4331-63.4492 57.4187-67.2047C55.7387-72.3049 51.3221-76.1247 45.4316-76.1247C39.5412-76.1247 35.1246-72.3049 33.4446-67.2047C23.4302-63.4492 18.9494-53.5081 18.3394-38.7522C17.8402-33.3157 17.0678-28.7592 14.4535-26.4222C10.8026-23.1617 7.15811-19.584 7.15811-15.3096ZM18.5911-17.4997L18.5911-17.9569C19.9336-18.8669 21.9711-20.5405 23.6891-22.5803C25.9219-25.2791 27.3669-30.5605 27.6664-37.4255C28.0413-52.8612 32.8512-57.8041 38.6311-59.3934C39.4944-59.5887 39.9649-60.0304 40.0426-61.0801C40.2312-64.9154 42.2754-67.306 45.4316-67.306C48.5546-67.306 50.6321-64.9154 50.7874-61.0801C50.865-60.0304 51.3688-59.5887 52.1989-59.3934C58.0121-57.8041 62.822-52.8612 63.1969-37.4255C63.4964-30.5605 64.9725-25.2791 67.1742-22.5803C68.8767-20.5405 70.7744-18.8669 72.1169-17.9569L72.1169-17.4997ZM38.1491-8.84277L52.7142-8.84277C52.4367-4.51445 49.4758-1.6667 45.4316-1.6667C41.3542-1.6667 38.4266-4.51445 38.1491-8.84277Z"/>
  </g>
  <g id="Medium-S" transform="matrix(1 0 0 1 1701.66 696)">
   <path d="M7.4209-15.1074C7.4209-11.5605 10.0996-9.17969 14.5225-9.17969L29.2705-9.17969C29.6035-1.76172 35.8252 5.19238 44.8926 5.19238C53.9199 5.19238 60.1416-1.72168 60.5146-9.17969L75.2627-9.17969C79.6855-9.17969 82.3643-11.5605 82.3643-15.1074C82.3643-19.1797 78.5449-22.7305 75.0352-26.0381C72.583-28.3145 71.7832-32.8643 71.4395-37.4248C71.0918-52.8545 66.8604-62.9102 56.6572-66.7734C55.0918-71.7793 50.7695-75.7002 44.8926-75.7002C39.0156-75.7002 34.6934-71.7793 33.1279-66.7734C22.9248-62.9102 18.6934-52.8545 18.3057-37.4248C18.002-32.8643 17.1621-28.3145 14.75-26.0381C11.2002-22.7305 7.4209-19.1797 7.4209-15.1074ZM17.6006-16.9404L17.6006-17.4111C18.7207-18.3076 20.7852-20.1025 22.584-22.1895C24.8438-24.8613 26.4033-29.4824 26.6152-36.4619C26.8486-53.124 31.8809-58.168 37.9707-59.8516C38.8408-60.0469 39.2979-60.5088 39.3418-61.4844C39.4697-65.4141 41.6016-67.9326 44.8926-67.9326C48.1436-67.9326 50.3154-65.4141 50.4033-61.4844C50.4473-60.5088 50.9443-60.0469 51.7744-59.8516C57.9043-58.168 62.9365-53.124 63.1699-36.4619C63.3818-29.4824 64.959-24.8613 67.2012-22.1895C68.9912-20.1025 70.9766-18.3076 72.0967-17.4111L72.0967-16.9404ZM37.2529-9.17969L52.5322-9.17969C52.248-4.56836 49.1523-1.5791 44.8926-1.5791C40.5928-1.5791 37.5371-4.56836 37.2529-9.17969Z"/>
  </g>
  <g id="Regular-S" transform="matrix(1 0 0 1 1405.65 696)">
   <path d="M7.76367-14.8438C7.76367-11.7188 10.2051-9.61914 14.3555-9.61914L29.2969-9.61914C29.6387-2.14844 35.6934 4.63867 44.1895 4.63867C52.6367 4.63867 58.6914-2.09961 59.082-9.61914L74.0234-9.61914C78.1738-9.61914 80.6152-11.7188 80.6152-14.8438C80.6152-18.6523 76.6113-22.168 73.2422-25.5371C71.0449-27.7344 70.166-32.2754 70.0684-35.6934C70.0195-52.002 66.1133-62.207 55.6641-66.2109C54.248-71.0938 50.0488-75.1465 44.1895-75.1465C38.3301-75.1465 34.1309-71.0938 32.7148-66.2109C22.2656-62.207 18.3594-52.002 18.2617-35.6934C18.2129-32.2754 17.2852-27.7344 15.1367-25.5371C11.7188-22.168 7.76367-18.6523 7.76367-14.8438ZM16.3086-16.2109L16.3086-16.6992C17.1387-17.5781 19.2383-19.5312 21.1426-21.6797C23.4375-24.3164 25.1465-28.0762 25.2441-35.2051C25.293-53.4668 30.6152-58.6426 37.1094-60.4492C37.9883-60.6445 38.4277-61.1328 38.4277-62.0117C38.4766-66.0645 40.7227-68.75 44.1895-68.75C47.6074-68.75 49.9023-66.0645 49.9023-62.0117C49.9023-61.1328 50.3906-60.6445 51.2207-60.4492C57.7637-58.6426 63.0859-53.4668 63.1348-35.2051C63.2324-28.0762 64.9414-24.3164 67.2363-21.6797C69.1406-19.5312 71.2402-17.5781 72.0703-16.6992L72.0703-16.2109ZM36.084-9.61914L52.2949-9.61914C52.002-4.63867 48.7305-1.46484 44.1895-1.46484C39.5996-1.46484 36.377-4.63867 36.084-9.61914Z"/>
  </g>
  <g id="Light-S" transform="matrix(1 0 0 1 1108.91 696)">
   <path d="M8.39941-13.6631C8.39941-11.1587 10.311-9.48291 13.5078-9.48291L30.644-9.48291C30.9101-2.23926 36.4351 3.91212 44.2197 3.91212C51.9707 3.91212 57.4956-2.20557 57.7954-9.48291L74.9316-9.48291C78.1284-9.48291 80.04-11.1587 80.04-13.6631C80.04-17.502 76.2329-20.9116 72.9849-24.2808C70.1367-27.2954 69.6514-33.4712 69.1753-38.7055C68.7178-52.7739 64.8418-62.1162 54.9072-65.5298C53.7183-70.564 49.7158-74.4199 44.2197-74.4199C38.7388-74.4199 34.7212-70.564 33.5322-65.5298C23.5976-62.1162 19.7217-52.7739 19.2305-38.7055C18.7881-33.4712 18.2842-27.2954 15.4697-24.2808C12.188-20.9116 8.39941-17.502 8.39941-13.6631ZM14.9312-14.6065L14.9312-15.0645C15.5039-16.3975 17.9214-18.8804 20.0225-21.1802C23.1499-24.5889 24.1021-30.4829 24.6235-38.2324C25.1416-53.6636 29.813-59.0664 36.4131-60.8882C37.4585-61.144 38.0342-61.6323 38.0947-62.6323C38.3101-66.6094 40.5864-69.4311 44.2197-69.4311C47.8193-69.4311 50.1294-66.6094 50.3262-62.6323C50.3867-61.6323 50.981-61.144 51.9927-60.8882C58.6265-59.0664 63.2978-53.6636 63.8159-38.2324C64.3525-30.4829 65.3047-24.5889 68.417-21.1802C70.5181-18.8804 72.9507-16.3975 73.5083-15.0645L73.5083-14.6065ZM35.9023-9.48291L52.5371-9.48291C52.2441-4.21485 48.8667-0.844243 44.2197-0.844243C39.5391-0.844243 36.1953-4.21485 35.9023-9.48291Z"/>
  </g>
  <g id="Thin-S" transform="matrix(1 0 0 1 812.162 696)">
   <path d="M9.24022-12.1016C9.24022-10.418 10.4512-9.30274 12.3867-9.30274L32.4258-9.30274C32.5918-2.35937 37.416 2.95119 44.2598 2.95119C51.0899 2.95119 55.9141-2.3457 56.0938-9.30274L76.1328-9.30274C78.0684-9.30274 79.2793-10.418 79.2793-12.1016C79.2793-15.9805 75.7324-19.25 72.6445-22.6192C68.9356-26.7149 68.9707-35.0527 67.9942-42.6894C66.9961-53.7949 63.1602-61.9961 53.9063-64.6289C53.0176-69.8633 49.2754-73.459 44.2598-73.459C39.2793-73.459 35.5019-69.8633 34.6133-64.6289C25.3594-61.9961 21.5234-53.7949 20.5117-42.6894C19.5488-35.0527 19.6055-26.7149 15.9102-22.6192C12.8086-19.25 9.24022-15.9805 9.24022-12.1016ZM13.1094-12.4844L13.1094-12.9024C13.3418-14.836 16.1797-18.0195 18.541-20.5195C22.7695-24.9492 22.7207-33.666 23.8027-42.2363C24.9414-53.9238 28.752-59.6269 35.4922-61.4687C36.7578-61.8047 37.5137-62.293 37.6543-63.4531C38.0898-67.3301 40.4063-70.332 44.2598-70.332C48.0996-70.332 50.4297-67.3301 50.8867-63.4531C51.0273-62.293 51.7617-61.8047 53.0137-61.4687C59.7676-59.6269 63.5781-53.9238 64.7168-42.2363C65.834-33.666 65.7851-24.9492 69.9785-20.5195C72.3398-18.0195 75.2129-14.836 75.4101-12.9024L75.4101-12.4844ZM35.6621-9.30274L52.8574-9.30274C52.5644-3.6543 49.0469-0.0234489 44.2598-0.0234489C39.459-0.0234489 35.9551-3.6543 35.6621-9.30274Z"/>
  </g>
  <g id="Ultralight-S" transform="matrix(1 0 0 1 515.431 696)">
   <path d="M9.67088-11.3018C9.67088-10.0386 10.5229-9.21045 11.8125-9.21045L33.3383-9.21045C33.4531-2.4209 37.9184 2.459 44.2803 2.459C50.6387 2.459 55.104-2.41748 55.2222-9.21045L76.748-9.21045C78.0376-9.21045 78.8897-10.0386 78.8897-11.3018C78.8897-15.2012 75.4761-18.399 72.4702-21.7681C68.3203-26.4175 68.6221-35.8628 67.3892-44.7299C66.1143-54.3179 62.2989-61.9346 53.3936-64.1675C52.6587-69.5044 49.0498-72.9668 44.2803-72.9668C39.5561-72.9668 35.9018-69.5044 35.167-64.1675C26.2617-61.9346 22.4463-54.3179 21.1679-44.7299C19.9385-35.8628 20.2822-26.4175 16.1357-21.7681C13.1265-18.399 9.67088-15.2012 9.67088-11.3018ZM12.1763-11.3975L12.1763-11.795C12.2344-14.0362 15.2876-17.5786 17.7823-20.1812C22.5747-25.1338 22.0132-35.2963 23.3823-44.287C24.8389-54.0571 28.2085-59.9141 35.0205-61.7661C36.3989-62.1431 37.2471-62.6313 37.4287-63.8735C37.9771-67.6992 40.314-70.7934 44.2803-70.7934C48.2432-70.7934 50.5835-67.6992 51.1738-63.8735C51.3555-62.6313 52.1616-62.1431 53.5366-61.7661C60.352-59.9141 63.7217-54.0571 65.1782-44.287C66.5927-35.2963 66.0312-25.1338 70.7783-20.1812C73.2729-17.5786 76.3715-14.0362 76.3842-11.795L76.3842-11.3975ZM35.5391-9.21045L53.0215-9.21045C52.7285-3.3672 49.1392 0.396958 44.2803 0.396958C39.418 0.396958 35.832-3.3672 35.5391-9.21045Z"/>
  </g>
 </g>
</svg>
