<?xml version="1.0" encoding="UTF-8"?>
<!--Generator: Apple Native CoreSVG 175.5-->
<!DOCTYPE svg
PUBLIC "-//W3C//DTD SVG 1.1//EN"
       "http://www.w3.org/Graphics/SVG/1.1/DTD/svg11.dtd">
<svg version="1.1" xmlns="http://www.w3.org/2000/svg" xmlns:xlink="http://www.w3.org/1999/xlink" width="3300" height="2200">
 <!--glyph: "uni1008EE.medium", point size: 100.0, font version: "18.0d12e2", template writer version: "101"-->
 <g id="Notes">
  <rect height="2200" id="artboard" style="fill:white;opacity:1" width="3300" x="0" y="0"/>
  <line style="fill:none;stroke:black;opacity:1;stroke-width:0.5;" x1="263" x2="3036" y1="292" y2="292"/>
  <text style="stroke:none;fill:black;font-family:sans-serif;font-size:13;font-weight:bold;" transform="matrix(1 0 0 1 263 322)">Weight/Scale Variations</text>
  <text style="stroke:none;fill:black;font-family:sans-serif;font-size:13;text-anchor:middle;" transform="matrix(1 0 0 1 559.711 322)">Ultralight</text>
  <text style="stroke:none;fill:black;font-family:sans-serif;font-size:13;text-anchor:middle;" transform="matrix(1 0 0 1 856.422 322)">Thin</text>
  <text style="stroke:none;fill:black;font-family:sans-serif;font-size:13;text-anchor:middle;" transform="matrix(1 0 0 1 1153.13 322)">Light</text>
  <text style="stroke:none;fill:black;font-family:sans-serif;font-size:13;text-anchor:middle;" transform="matrix(1 0 0 1 1449.84 322)">Regular</text>
  <text style="stroke:none;fill:black;font-family:sans-serif;font-size:13;text-anchor:middle;" transform="matrix(1 0 0 1 1746.56 322)">Medium</text>
  <text style="stroke:none;fill:black;font-family:sans-serif;font-size:13;text-anchor:middle;" transform="matrix(1 0 0 1 2043.27 322)">Semibold</text>
  <text style="stroke:none;fill:black;font-family:sans-serif;font-size:13;text-anchor:middle;" transform="matrix(1 0 0 1 2339.98 322)">Bold</text>
  <text style="stroke:none;fill:black;font-family:sans-serif;font-size:13;text-anchor:middle;" transform="matrix(1 0 0 1 2636.69 322)">Heavy</text>
  <text style="stroke:none;fill:black;font-family:sans-serif;font-size:13;text-anchor:middle;" transform="matrix(1 0 0 1 2933.4 322)">Black</text>
  <line style="fill:none;stroke:black;opacity:1;stroke-width:0.5;" x1="263" x2="3036" y1="1903" y2="1903"/>
  <g transform="matrix(1 0 0 1 263 1933)">
   <path d="M9.24805 0.830078C13.5547 0.830078 17.1387-2.74414 17.1387-7.05078C17.1387-11.3574 13.5449-14.9316 9.23828-14.9316C4.94141-14.9316 1.36719-11.3574 1.36719-7.05078C1.36719-2.74414 4.95117 0.830078 9.24805 0.830078ZM9.24805-0.654297C5.70312-0.654297 2.87109-3.49609 2.87109-7.05078C2.87109-10.6055 5.69336-13.4473 9.23828-13.4473C12.793-13.4473 15.6445-10.6055 15.6445-7.05078C15.6445-3.49609 12.8027-0.654297 9.24805-0.654297ZM5.6543-7.05078C5.6543-6.62109 5.95703-6.32812 6.40625-6.32812L8.50586-6.32812L8.50586-4.20898C8.50586-3.76953 8.79883-3.4668 9.22852-3.4668C9.67773-3.4668 9.9707-3.76953 9.9707-4.20898L9.9707-6.32812L12.0898-6.32812C12.5293-6.32812 12.832-6.62109 12.832-7.05078C12.832-7.49023 12.5293-7.79297 12.0898-7.79297L9.9707-7.79297L9.9707-9.90234C9.9707-10.3516 9.67773-10.6543 9.22852-10.6543C8.79883-10.6543 8.50586-10.3516 8.50586-9.90234L8.50586-7.79297L6.40625-7.79297C5.95703-7.79297 5.6543-7.49023 5.6543-7.05078Z"/>
  </g>
  <g transform="matrix(1 0 0 1 281.867 1933)">
   <path d="M11.709 2.91016C17.1582 2.91016 21.6699-1.61133 21.6699-7.05078C21.6699-12.5 17.1484-17.0117 11.6992-17.0117C6.25977-17.0117 1.74805-12.5 1.74805-7.05078C1.74805-1.61133 6.26953 2.91016 11.709 2.91016ZM11.709 1.25C7.09961 1.25 3.41797-2.44141 3.41797-7.05078C3.41797-11.6602 7.08984-15.3516 11.6992-15.3516C16.3086-15.3516 20.0098-11.6602 20.0098-7.05078C20.0098-2.44141 16.3184 1.25 11.709 1.25ZM7.17773-7.05078C7.17773-6.57227 7.50977-6.25 8.00781-6.25L10.8789-6.25L10.8789-3.36914C10.8789-2.88086 11.2109-2.53906 11.6895-2.53906C12.1777-2.53906 12.5195-2.87109 12.5195-3.36914L12.5195-6.25L15.4004-6.25C15.8887-6.25 16.2305-6.57227 16.2305-7.05078C16.2305-7.53906 15.8887-7.88086 15.4004-7.88086L12.5195-7.88086L12.5195-10.752C12.5195-11.25 12.1777-11.5918 11.6895-11.5918C11.2109-11.5918 10.8789-11.25 10.8789-10.752L10.8789-7.88086L8.00781-7.88086C7.50977-7.88086 7.17773-7.53906 7.17773-7.05078Z"/>
  </g>
  <g transform="matrix(1 0 0 1 305.646 1933)">
   <path d="M14.9707 5.66406C21.9336 5.66406 27.6953-0.0976562 27.6953-7.05078C27.6953-14.0137 21.9238-19.7754 14.9609-19.7754C8.00781-19.7754 2.25586-14.0137 2.25586-7.05078C2.25586-0.0976562 8.01758 5.66406 14.9707 5.66406ZM14.9707 3.84766C8.93555 3.84766 4.08203-1.01562 4.08203-7.05078C4.08203-13.0957 8.92578-17.9492 14.9609-17.9492C21.0059-17.9492 25.8691-13.0957 25.8691-7.05078C25.8691-1.01562 21.0156 3.84766 14.9707 3.84766ZM9.19922-7.05078C9.19922-6.5332 9.57031-6.17188 10.1172-6.17188L14.0625-6.17188L14.0625-2.2168C14.0625-1.67969 14.4336-1.29883 14.9512-1.29883C15.4883-1.29883 15.8594-1.66992 15.8594-2.2168L15.8594-6.17188L19.8145-6.17188C20.3516-6.17188 20.7324-6.5332 20.7324-7.05078C20.7324-7.59766 20.3613-7.96875 19.8145-7.96875L15.8594-7.96875L15.8594-11.9141C15.8594-12.4609 15.4883-12.8418 14.9512-12.8418C14.4336-12.8418 14.0625-12.4609 14.0625-11.9141L14.0625-7.96875L10.1172-7.96875C9.57031-7.96875 9.19922-7.59766 9.19922-7.05078Z"/>
  </g>
  <text style="stroke:none;fill:black;font-family:sans-serif;font-size:13;font-weight:bold;" transform="matrix(1 0 0 1 263 1953)">Design Variations</text>
  <text style="stroke:none;fill:black;font-family:sans-serif;font-size:13;" transform="matrix(1 0 0 1 263 1971)">Symbols are supported in up to nine weights and three scales.</text>
  <text style="stroke:none;fill:black;font-family:sans-serif;font-size:13;" transform="matrix(1 0 0 1 263 1989)">For optimal layout with text and other symbols, vertically align</text>
  <text style="stroke:none;fill:black;font-family:sans-serif;font-size:13;" transform="matrix(1 0 0 1 263 2007)">symbols with the adjacent text.</text>
  <line style="fill:none;stroke:#00AEEF;stroke-width:0.5;opacity:1.0;" x1="776" x2="776" y1="1919" y2="1933"/>
  <g transform="matrix(1 0 0 1 776 1933)">
   <path d="M3.31055 0.15625C3.82812 0.15625 4.08203-0.0390625 4.26758-0.585938L5.52734-4.0332L11.2891-4.0332L12.5488-0.585938C12.7344-0.0390625 12.9883 0.15625 13.4961 0.15625C14.0137 0.15625 14.3457-0.15625 14.3457-0.644531C14.3457-0.810547 14.3164-0.966797 14.2383-1.17188L9.6582-13.3691C9.43359-13.9648 9.0332-14.2676 8.4082-14.2676C7.80273-14.2676 7.39258-13.9746 7.17773-13.3789L2.59766-1.16211C2.51953-0.957031 2.49023-0.800781 2.49023-0.634766C2.49023-0.146484 2.80273 0.15625 3.31055 0.15625ZM6.00586-5.51758L8.37891-12.0898L8.42773-12.0898L10.8008-5.51758Z"/>
  </g>
  <line style="fill:none;stroke:#00AEEF;stroke-width:0.5;opacity:1.0;" x1="793.197" x2="793.197" y1="1919" y2="1933"/>
  <text style="stroke:none;fill:black;font-family:sans-serif;font-size:13;font-weight:bold;" transform="matrix(1 0 0 1 776 1953)">Margins</text>
  <text style="stroke:none;fill:black;font-family:sans-serif;font-size:13;" transform="matrix(1 0 0 1 776 1971)">Leading and trailing margins on the left and right side of each symbol</text>
  <text style="stroke:none;fill:black;font-family:sans-serif;font-size:13;" transform="matrix(1 0 0 1 776 1989)">can be adjusted by modifying the x-location of the margin guidelines.</text>
  <text style="stroke:none;fill:black;font-family:sans-serif;font-size:13;" transform="matrix(1 0 0 1 776 2007)">Modifications are automatically applied proportionally to all</text>
  <text style="stroke:none;fill:black;font-family:sans-serif;font-size:13;" transform="matrix(1 0 0 1 776 2025)">scales and weights.</text>
  <g transform="matrix(1 0 0 1 1289 1933)">
   <path d="M2.8418 1.86523L4.54102 3.57422C5.40039 4.44336 6.38672 4.38477 7.31445 3.35938L18.0078-8.42773L17.041-9.4043L6.42578 2.27539C6.07422 2.67578 5.74219 2.77344 5.27344 2.30469L4.10156 1.14258C3.63281 0.683594 3.74023 0.341797 4.14062-0.0195312L15.6152-10.8203L14.6387-11.7871L3.04688-0.898438C2.06055 0.0195312 1.98242 0.996094 2.8418 1.86523ZM9.25781-16.3281C8.83789-15.918 8.80859-15.3418 9.04297-14.9512C9.27734-14.5898 9.73633-14.3555 10.3809-14.5215C11.8457-14.8633 13.3691-14.9219 14.7949-13.9844L14.209-12.5293C13.8672-11.6992 14.043-11.1133 14.5801-10.5664L16.875-8.25195C17.3633-7.76367 17.7734-7.74414 18.3398-7.8418L19.4043-8.03711L20.0684-7.36328L20.0293-6.80664C19.9902-6.30859 20.1172-5.92773 20.6055-5.44922L21.3672-4.70703C21.8457-4.22852 22.4609-4.19922 22.9297-4.66797L25.8398-7.58789C26.3086-8.05664 26.2891-8.65234 25.8105-9.13086L25.0391-9.89258C24.5605-10.3711 24.1895-10.5273 23.7109-10.4883L23.1348-10.4395L22.4902-11.0742L22.7344-12.1973C22.8613-12.7637 22.7051-13.2031 22.1191-13.7891L19.9219-15.9766C16.582-19.2969 12.1484-19.2188 9.25781-16.3281ZM10.752-15.957C13.1836-17.7344 16.4746-17.4316 18.7012-15.2051L21.1328-12.793C21.3672-12.5586 21.4062-12.373 21.3379-12.0312L21.0156-10.5469L22.5195-9.0625L23.5059-9.12109C23.7598-9.13086 23.8379-9.11133 24.0332-8.91602L24.6094-8.33984L22.168-5.89844L21.5918-6.47461C21.3965-6.66992 21.3672-6.74805 21.377-7.01172L21.4453-7.98828L19.9512-9.47266L18.4277-9.21875C18.1055-9.15039 17.959-9.17969 17.7148-9.41406L15.7129-11.416C15.459-11.6504 15.4297-11.8164 15.5859-12.1875L16.4648-14.2773C14.9023-15.7324 12.8711-16.3574 10.8398-15.7617C10.6836-15.7227 10.625-15.8496 10.752-15.957Z"/>
  </g>
  <text style="stroke:none;fill:black;font-family:sans-serif;font-size:13;font-weight:bold;" transform="matrix(1 0 0 1 1289 1953)">Exporting</text>
  <text style="stroke:none;fill:black;font-family:sans-serif;font-size:13;" transform="matrix(1 0 0 1 1289 1971)">Symbols should be outlined when exporting to ensure the</text>
  <text style="stroke:none;fill:black;font-family:sans-serif;font-size:13;" transform="matrix(1 0 0 1 1289 1989)">design is preserved when submitting to Xcode.</text>
  <text id="template-version" style="stroke:none;fill:black;font-family:sans-serif;font-size:13;text-anchor:end;" transform="matrix(1 0 0 1 3036 1933)">Template v.4.0</text>
  <text style="stroke:none;fill:black;font-family:sans-serif;font-size:13;text-anchor:end;" transform="matrix(1 0 0 1 3036 1951)">Requires Xcode 14 or greater</text>
  <text id="descriptive-name" style="stroke:none;fill:black;font-family:sans-serif;font-size:13;text-anchor:end;" transform="matrix(1 0 0 1 3036 1969)">Generated from squareshape</text>
  <text style="stroke:none;fill:black;font-family:sans-serif;font-size:13;text-anchor:end;" transform="matrix(1 0 0 1 3036 1987)">Typeset at 100 points</text>
  <text style="stroke:none;fill:black;font-family:sans-serif;font-size:13;" transform="matrix(1 0 0 1 263 726)">Small</text>
  <text style="stroke:none;fill:black;font-family:sans-serif;font-size:13;" transform="matrix(1 0 0 1 263 1156)">Medium</text>
  <text style="stroke:none;fill:black;font-family:sans-serif;font-size:13;" transform="matrix(1 0 0 1 263 1586)">Large</text>
 </g>
 <g id="Guides">
  <g id="H-reference" style="fill:#27AAE1;stroke:none;" transform="matrix(1 0 0 1 339 696)">
   <path d="M0.993654 0L3.63775 0L29.3281-67.1323L30.0303-67.1323L30.0303-70.459L28.1226-70.459ZM11.6885-24.4799L46.9815-24.4799L46.2315-26.7285L12.4385-26.7285ZM55.1196 0L57.7637 0L30.6382-70.459L29.4326-70.459L29.4326-67.1323Z"/>
  </g>
  <line id="Baseline-S" style="fill:none;stroke:#27AAE1;opacity:1;stroke-width:0.5;" x1="263" x2="3036" y1="696" y2="696"/>
  <line id="Capline-S" style="fill:none;stroke:#27AAE1;opacity:1;stroke-width:0.5;" x1="263" x2="3036" y1="625.541" y2="625.541"/>
  <g id="H-reference" style="fill:#27AAE1;stroke:none;" transform="matrix(1 0 0 1 339 1126)">
   <path d="M0.993654 0L3.63775 0L29.3281-67.1323L30.0303-67.1323L30.0303-70.459L28.1226-70.459ZM11.6885-24.4799L46.9815-24.4799L46.2315-26.7285L12.4385-26.7285ZM55.1196 0L57.7637 0L30.6382-70.459L29.4326-70.459L29.4326-67.1323Z"/>
  </g>
  <line id="Baseline-M" style="fill:none;stroke:#27AAE1;opacity:1;stroke-width:0.5;" x1="263" x2="3036" y1="1126" y2="1126"/>
  <line id="Capline-M" style="fill:none;stroke:#27AAE1;opacity:1;stroke-width:0.5;" x1="263" x2="3036" y1="1055.54" y2="1055.54"/>
  <g id="H-reference" style="fill:#27AAE1;stroke:none;" transform="matrix(1 0 0 1 339 1556)">
   <path d="M0.993654 0L3.63775 0L29.3281-67.1323L30.0303-67.1323L30.0303-70.459L28.1226-70.459ZM11.6885-24.4799L46.9815-24.4799L46.2315-26.7285L12.4385-26.7285ZM55.1196 0L57.7637 0L30.6382-70.459L29.4326-70.459L29.4326-67.1323Z"/>
  </g>
  <line id="Baseline-L" style="fill:none;stroke:#27AAE1;opacity:1;stroke-width:0.5;" x1="263" x2="3036" y1="1556" y2="1556"/>
  <line id="Capline-L" style="fill:none;stroke:#27AAE1;opacity:1;stroke-width:0.5;" x1="263" x2="3036" y1="1485.54" y2="1485.54"/>
  <line id="left-margin-Regular-M" style="fill:none;stroke:#00AEEF;stroke-width:0.5;opacity:1.0;" x1="1392.45" x2="1392.45" y1="1030.79" y2="1150.12"/>
  <line id="right-margin-Regular-M" style="fill:none;stroke:#00AEEF;stroke-width:0.5;opacity:1.0;" x1="1507.24" x2="1507.24" y1="1030.79" y2="1150.12"/>
 </g>
 <g id="Symbols">
  <g id="Black-L" transform="matrix(1 0 0 1 2855.72 1556)">
   <path d="M16.084 19.7097C16.084 23.7215 18.7642 26.4225 22.7968 26.4225L132.572 26.4225C136.604 26.4225 139.284 23.7215 139.284 19.7097L139.284-90.0651C139.284-94.0976 136.604-96.7987 132.572-96.7987L22.7968-96.7987C18.7642-96.7987 16.084-94.0976 16.084-90.0651ZM36.065 4.73622L36.065-75.1124C36.065-76.1975 36.6643-76.7969 37.7703-76.7969L117.619-76.7969C118.704-76.7969 119.303-76.1975 119.303-75.1124L119.303 4.73622C119.303 5.82138 118.704 6.42071 117.619 6.42071L37.7703 6.42071C36.6643 6.42071 36.065 5.82138 36.065 4.73622Z"/>
  </g>
  <g id="Heavy-L" transform="matrix(1 0 0 1 2559.92 1556)">
   <path d="M16.084 19.2564C16.084 22.9913 18.5783 25.5159 22.3434 25.5159L131.193 25.5159C134.958 25.5159 137.453 22.9913 137.453 19.2564L137.453-89.5936C137.453-93.3587 134.958-95.8832 131.193-95.8832L22.3434-95.8832C18.5783-95.8832 16.084-93.3587 16.084-89.5936ZM33.5844 6.28982L33.5844-76.6572C33.5844-77.7809 34.1561-78.3526 35.31-78.3526L118.257-78.3526C119.381-78.3526 119.952-77.7809 119.952-76.6572L119.952 6.28982C119.952 7.41351 119.381 7.98528 118.257 7.98528L35.31 7.98528C34.1561 7.98528 33.5844 7.41351 33.5844 6.28982Z"/>
  </g>
  <g id="Bold-L" transform="matrix(1 0 0 1 2264.35 1556)">
   <path d="M16.084 18.7253C16.084 22.0996 18.3329 24.3865 21.7452 24.3865L129.51 24.3865C132.922 24.3865 135.171 22.0996 135.171 18.7253L135.171-89.0394C135.171-92.4517 132.922-94.7386 129.51-94.7386L21.7452-94.7386C18.3329-94.7386 16.084-92.4517 16.084-89.0394ZM30.5257 8.22581L30.5257-78.5779C30.5257-79.718 31.0667-80.2589 32.2447-80.2589L119.048-80.2589C120.188-80.2589 120.729-79.718 120.729-78.5779L120.729 8.22581C120.729 9.36585 120.188 9.90678 119.048 9.90678L32.2447 9.90678C31.0667 9.90678 30.5257 9.36585 30.5257 8.22581Z"/>
  </g>
  <g id="Semibold-L" transform="matrix(1 0 0 1 1968.43 1556)">
   <path d="M16.084 18.3592C16.084 21.4848 18.1637 23.608 21.3328 23.608L128.349 23.608C131.518 23.608 133.598 21.4848 133.598 18.3592L133.598-88.6574C133.598-91.8264 131.518-93.9496 128.349-93.9496L21.3328-93.9496C18.1637-93.9496 16.084-91.8264 16.084-88.6574ZM28.4171 9.56047L28.4171-79.9021C28.4171-81.0534 28.9368-81.573 30.1315-81.573L119.594-81.573C120.745-81.573 121.265-81.0534 121.265-79.9021L121.265 9.56047C121.265 10.7118 120.745 11.2314 119.594 11.2314L30.1315 11.2314C28.9368 11.2314 28.4171 10.7118 28.4171 9.56047Z"/>
  </g>
  <g id="Medium-L" transform="matrix(1 0 0 1 1672.31 1556)">
   <path d="M16.084 18.0815C16.084 21.0187 18.0355 23.0176 21.0201 23.0176L127.469 23.0176C130.454 23.0176 132.405 21.0187 132.405 18.0815L132.405-88.3677C132.405-91.3523 130.454-93.3513 127.469-93.3513L21.0201-93.3513C18.0355-93.3513 16.084-91.3523 16.084-88.3677ZM26.8183 10.5725L26.8183-80.9061C26.8183-82.066 27.3218-82.5695 28.5291-82.5695L120.008-82.5695C121.168-82.5695 121.671-82.066 121.671-80.9061L121.671 10.5725C121.671 11.7323 121.168 12.2359 120.008 12.2359L28.5291 12.2359C27.3218 12.2359 26.8183 11.7323 26.8183 10.5725Z"/>
  </g>
  <g id="Regular-L" transform="matrix(1 0 0 1 1376.38 1556)">
   <path d="M16.084 17.7194C16.084 20.4107 17.8681 22.2476 20.6122 22.2476L126.321 22.2476C129.066 22.2476 130.85 20.4107 130.85 17.7194L130.85-87.9899C130.85-90.7339 129.066-92.5709 126.321-92.5709L20.6122-92.5709C17.8681-92.5709 16.084-90.7339 16.084-87.9899ZM24.7328 11.8925L24.7328-82.2157C24.7328-83.3867 25.2154-83.8692 26.4391-83.8692L120.547-83.8692C121.718-83.8692 122.201-83.3867 122.201-82.2157L122.201 11.8925C122.201 13.0635 121.718 13.546 120.547 13.546L26.4391 13.546C25.2154 13.546 24.7328 13.0635 24.7328 11.8925Z"/>
  </g>
  <g id="Light-L" transform="matrix(1 0 0 1 1080.5 1556)">
   <path d="M16.084 17.5476C16.084 19.8763 17.6009 21.4269 19.9633 21.4269L125.31 21.4269C127.672 21.4269 129.189 19.8763 129.189 17.5476L129.189-87.799C129.189-90.1614 127.672-91.712 125.31-91.712L19.9633-91.712C17.6009-91.712 16.084-90.1614 16.084-87.799ZM22.7098 13.3048L22.7098-83.5899C22.7098-84.57 23.1923-85.0525 24.2061-85.0525L121.101-85.0525C122.081-85.0525 122.563-84.57 122.563-83.5899L122.563 13.3048C122.563 14.2849 122.081 14.7674 121.101 14.7674L24.2061 14.7674C23.1923 14.7674 22.7098 14.2849 22.7098 13.3048Z"/>
  </g>
  <g id="Thin-L" transform="matrix(1 0 0 1 784.884 1556)">
   <path d="M16.084 17.3204C16.084 19.1695 17.2475 20.3415 19.1051 20.3415L123.972 20.3415C125.83 20.3415 126.993 19.1695 126.993 17.3204L126.993-87.5466C126.993-89.4041 125.83-90.5761 123.972-90.5761L19.1051-90.5761C17.2475-90.5761 16.084-89.4041 16.084-87.5466ZM20.0342 15.1727L20.0342-85.4073C20.0342-86.135 20.5167-86.6175 21.2529-86.6175L121.833-86.6175C122.561-86.6175 123.043-86.135 123.043-85.4073L123.043 15.1727C123.043 15.9004 122.561 16.3829 121.833 16.3829L21.2529 16.3829C20.5167 16.3829 20.0342 15.9004 20.0342 15.1727Z"/>
  </g>
  <g id="Ultralight-L" transform="matrix(1 0 0 1 488.735 1556)">
   <path d="M16.084 17.2041C16.084 18.8075 17.0665 19.7856 18.6655 19.7856L123.287 19.7856C124.886 19.7856 125.868 18.8075 125.868 17.2041L125.868-87.4173C125.868-89.0163 124.886-89.9943 123.287-89.9943L18.6655-89.9943C17.0665-89.9943 16.084-89.0163 16.084-87.4173ZM18.6637 16.1294L18.6637-86.3381C18.6637-86.9366 19.1462-87.4191 19.7402-87.4191L122.208-87.4191C122.806-87.4191 123.289-86.9366 123.289-86.3381L123.289 16.1294C123.289 16.7278 122.806 17.2104 122.208 17.2104L19.7402 17.2104C19.1462 17.2104 18.6637 16.7278 18.6637 16.1294Z"/>
  </g>
  <g id="Black-M" transform="matrix(1 0 0 1 2872.54 1126)">
   <path d="M12.4609 7.7005C12.4609 10.9974 14.661 13.203 17.9634 13.203L103.756 13.203C107.059 13.203 109.259 10.9974 109.259 7.7005L109.259-78.0923C109.259-81.3947 107.059-83.6002 103.756-83.6002L17.9634-83.6002C14.661-83.6002 12.4609-81.3947 12.4609-78.0923ZM29.7989-5.41024L29.7989-64.987C29.7989-65.7687 30.2869-66.2568 31.0741-66.2568L90.6509-66.2568C91.4326-66.2568 91.9207-65.7687 91.9207-64.987L91.9207-5.41024C91.9207-4.6285 91.4326-4.14048 90.6509-4.14048L31.0741-4.14048C30.2869-4.14048 29.7989-4.6285 29.7989-5.41024Z"/>
  </g>
  <g id="Heavy-M" transform="matrix(1 0 0 1 2576.65 1126)">
   <path d="M12.4609 7.27324C12.4609 10.3329 14.5039 12.3923 17.58 12.3923L102.502 12.3923C105.578 12.3923 107.621 10.3329 107.621 7.27324L107.621-77.649C107.621-80.7251 105.578-82.7845 102.502-82.7845L17.58-82.7845C14.5039-82.7845 12.4609-80.7251 12.4609-77.649ZM27.5605-4.02178L27.5605-66.3704C27.5605-67.2074 28.0216-67.6684 28.875-67.6684L91.2236-67.6684C92.0606-67.6684 92.5217-67.2074 92.5217-66.3704L92.5217-4.02178C92.5217-3.18476 92.0606-2.72369 91.2236-2.72369L28.875-2.72369C28.0216-2.72369 27.5605-3.18476 27.5605-4.02178Z"/>
  </g>
  <g id="Bold-M" transform="matrix(1 0 0 1 2280.85 1126)">
   <path d="M12.4609 6.7953C12.4609 9.58961 14.3282 11.4855 17.1512 11.4855L101.1 11.4855C103.922 11.4855 105.79 9.58961 105.79 6.7953L105.79-77.1531C105.79-79.976 103.922-81.8719 101.1-81.8719L17.1512-81.8719C14.3282-81.8719 12.4609-79.976 12.4609-77.1531ZM25.0566-2.46859L25.0566-67.9178C25.0566-68.8167 25.4876-69.2476 26.415-69.2476L91.8643-69.2476C92.7631-69.2476 93.1941-68.8167 93.1941-67.9178L93.1941-2.46859C93.1941-1.56973 92.7631-1.13881 91.8643-1.13881L26.415-1.13881C25.4876-1.13881 25.0566-1.56973 25.0566-2.46859Z"/>
  </g>
  <g id="Semibold-M" transform="matrix(1 0 0 1 1984.77 1126)">
   <path d="M12.4609 6.46581C12.4609 9.07718 14.2071 10.8604 16.8555 10.8604L100.133 10.8604C102.781 10.8604 104.527 9.07718 104.527 6.46581L104.527-76.8112C104.527-79.4596 102.781-81.2428 100.133-81.2428L16.8555-81.2428C14.2071-81.2428 12.4609-79.4596 12.4609-76.8112ZM23.3305-1.39783L23.3305-68.9846C23.3305-69.9261 23.7406-70.3363 24.7191-70.3363L92.306-70.3363C93.2474-70.3363 93.6576-69.9261 93.6576-68.9846L93.6576-1.39783C93.6576-0.45634 93.2474-0.0461991 92.306-0.0461991L24.7191-0.0461991C23.7406-0.0461991 23.3305-0.45634 23.3305-1.39783Z"/>
  </g>
  <g id="Medium-M" transform="matrix(1 0 0 1 1688.54 1126)">
   <path d="M12.4609 6.21597C12.4609 8.68862 14.1152 10.3864 16.6313 10.3864L99.3993 10.3864C101.915 10.3864 103.57 8.68862 103.57 6.21597L103.57-76.552C103.57-79.0681 101.915-80.7658 99.3993-80.7658L16.6313-80.7658C14.1152-80.7658 12.4609-79.0681 12.4609-76.552ZM22.0216-0.585932L22.0216-69.7935C22.0216-70.7674 22.416-71.1617 23.4332-71.1617L92.6408-71.1617C93.6147-71.1617 94.009-70.7674 94.009-69.7935L94.009-0.585932C94.009 0.387879 93.6147 0.782262 92.6408 0.782262L23.4332 0.782262C22.416 0.782262 22.0216 0.387879 22.0216-0.585932Z"/>
  </g>
  <g id="Regular-M" transform="matrix(1 0 0 1 1392.45 1126)">
   <path d="M12.4609 5.8901C12.4609 8.18182 13.9954 9.76808 16.3389 9.76808L98.4429 9.76808C100.786 9.76808 102.321 8.18182 102.321 5.8901L102.321-76.2139C102.321-78.5574 100.786-80.1437 98.4429-80.1437L16.3389-80.1437C13.9954-80.1437 12.4609-78.5574 12.4609-76.2139ZM20.3144 0.473062L20.3144-70.8486C20.3144-71.8646 20.6882-72.2384 21.756-72.2384L93.0777-72.2384C94.0936-72.2384 94.4675-71.8646 94.4675-70.8486L94.4675 0.473062C94.4675 1.48904 94.0936 1.86286 93.0777 1.86286L21.756 1.86286C20.6882 1.86286 20.3144 1.48904 20.3144 0.473062Z"/>
  </g>
  <g id="Light-M" transform="matrix(1 0 0 1 1096.49 1126)">
   <path d="M12.4609 5.7361C12.4609 7.70271 13.7559 9.03231 15.7571 9.03231L97.5361 9.03231C99.5373 9.03231 100.832 7.70271 100.832 5.7361L100.832-76.0428C100.832-78.0441 99.5373-79.3737 97.5361-79.3737L15.7571-79.3737C13.7559-79.3737 12.4609-78.0441 12.4609-76.0428ZM18.5006 1.73927L18.5006-72.0806C18.5006-72.9255 18.8745-73.2993 19.754-73.2993L93.5739-73.2993C94.4187-73.2993 94.7926-72.9255 94.7926-72.0806L94.7926 1.73927C94.7926 2.58414 94.4187 2.95796 93.5739 2.95796L19.754 2.95796C18.8745 2.95796 18.5006 2.58414 18.5006 1.73927Z"/>
  </g>
  <g id="Thin-M" transform="matrix(1 0 0 1 800.76 1126)">
   <path d="M12.4609 5.53243C12.4609 7.06905 13.4391 8.0592 14.9877 8.0592L96.3366 8.0592C97.8853 8.0592 98.8634 7.06905 98.8634 5.53243L98.8634-75.8165C98.8634-77.3651 97.8853-78.3553 96.3366-78.3553L14.9877-78.3553C13.4391-78.3553 12.4609-77.3651 12.4609-75.8165ZM16.1018 3.41394L16.1018-73.71C16.1018-74.3286 16.4756-74.7024 17.1062-74.7024L94.2302-74.7024C94.8487-74.7024 95.2226-74.3286 95.2226-73.71L95.2226 3.41394C95.2226 4.03249 94.8487 4.40632 94.2302 4.40632L17.1062 4.40632C16.4756 4.40632 16.1018 4.03249 16.1018 3.41394Z"/>
  </g>
  <g id="Ultralight-M" transform="matrix(1 0 0 1 504.553 1126)">
   <path d="M12.4609 5.4281C12.4609 6.7445 13.2768 7.56077 14.5936 7.56077L95.7223 7.56077C97.0391 7.56077 97.855 6.7445 97.855 5.4281L97.855-75.7006C97.855-77.0174 97.0391-77.8337 95.7223-77.8337L14.5936-77.8337C13.2768-77.8337 12.4609-77.0174 12.4609-75.7006ZM14.8731 4.27169L14.8731-74.5446C14.8731-75.0472 15.247-75.4211 15.75-75.4211L94.5663-75.4211C95.069-75.4211 95.4428-75.0472 95.4428-74.5446L95.4428 4.27169C95.4428 4.77434 95.069 5.14816 94.5663 5.14816L15.75 5.14816C15.247 5.14816 14.8731 4.77434 14.8731 4.27169Z"/>
  </g>
  <g id="Black-S" transform="matrix(1 0 0 1 2885.5 696)">
   <path d="M9.76562-1.46484C9.76562 1.17188 11.5234 2.92969 14.1602 2.92969L81.6406 2.92969C84.2773 2.92969 86.0352 1.17188 86.0352-1.46484L86.0352-68.9453C86.0352-71.582 84.2773-73.3398 81.6406-73.3398L14.1602-73.3398C11.5234-73.3398 9.76562-71.582 9.76562-68.9453ZM23.9258-12.207L23.9258-58.2031C23.9258-58.7891 24.3164-59.1797 24.9023-59.1797L70.8984-59.1797C71.4844-59.1797 71.875-58.7891 71.875-58.2031L71.875-12.207C71.875-11.6211 71.4844-11.2305 70.8984-11.2305L24.9023-11.2305C24.3164-11.2305 23.9258-11.6211 23.9258-12.207Z"/>
  </g>
  <g id="Heavy-S" transform="matrix(1 0 0 1 2589.39 696)">
   <path d="M9.76562-1.81058C9.76562 0.664799 11.4197 2.33042 13.9066 2.33042L80.6841 2.33042C83.171 2.33042 84.8251 0.664799 84.8251-1.81058L84.8251-68.5881C84.8251-71.075 83.171-72.7406 80.6841-72.7406L13.9066-72.7406C11.4197-72.7406 9.76562-71.075 9.76562-68.5881ZM22.2432-11.1814L22.2432-59.2288C22.2432-59.8839 22.6108-60.2515 23.2774-60.2515L71.3248-60.2515C71.9799-60.2515 72.3475-59.8839 72.3475-59.2288L72.3475-11.1814C72.3475-10.5263 71.9799-10.1587 71.3248-10.1587L23.2774-10.1587C22.6108-10.1587 22.2432-10.5263 22.2432-11.1814Z"/>
  </g>
  <g id="Bold-S" transform="matrix(1 0 0 1 2293.36 696)">
   <path d="M9.76562-2.19727C9.76562 0.0976562 11.3037 1.66016 13.623 1.66016L79.6143 1.66016C81.9336 1.66016 83.4717 0.0976562 83.4717-2.19727L83.4717-68.1885C83.4717-70.5078 81.9336-72.0703 79.6143-72.0703L13.623-72.0703C11.3037-72.0703 9.76562-70.5078 9.76562-68.1885ZM20.3613-10.0342L20.3613-60.376C20.3613-61.1084 20.7031-61.4502 21.46-61.4502L71.8018-61.4502C72.5342-61.4502 72.876-61.1084 72.876-60.376L72.876-10.0342C72.876-9.30176 72.5342-8.95996 71.8018-8.95996L21.46-8.95996C20.7031-8.95996 20.3613-9.30176 20.3613-10.0342Z"/>
  </g>
  <g id="Semibold-S" transform="matrix(1 0 0 1 1997.11 696)">
   <path d="M9.76562-2.46387C9.76562-0.293359 11.2237 1.19805 13.4275 1.19805L78.8767 1.19805C81.0805 1.19805 82.5386-0.293359 82.5386-2.46387L82.5386-67.913C82.5386-70.1168 81.0805-71.6082 78.8767-71.6082L13.4275-71.6082C11.2237-71.6082 9.76562-70.1168 9.76562-67.913ZM19.0639-9.24326L19.0639-61.1669C19.0639-61.9526 19.3879-62.2767 20.2069-62.2767L72.1306-62.2767C72.9163-62.2767 73.2403-61.9526 73.2403-61.1669L73.2403-9.24326C73.2403-8.45752 72.9163-8.1335 72.1306-8.1335L20.2069-8.1335C19.3879-8.1335 19.0639-8.45752 19.0639-9.24326Z"/>
  </g>
  <g id="Medium-S" transform="matrix(1 0 0 1 1700.76 696)">
   <path d="M9.76562-2.66602C9.76562-0.589844 11.1631 0.847656 13.2793 0.847656L78.3174 0.847656C80.4336 0.847656 81.8311-0.589844 81.8311-2.66602L81.8311-67.7041C81.8311-69.8203 80.4336-71.2578 78.3174-71.2578L13.2793-71.2578C11.1631-71.2578 9.76562-69.8203 9.76562-67.7041ZM18.0801-8.64355L18.0801-61.7666C18.0801-62.5928 18.3906-62.9033 19.2568-62.9033L72.3799-62.9033C73.2061-62.9033 73.5166-62.5928 73.5166-61.7666L73.5166-8.64355C73.5166-7.81738 73.2061-7.50684 72.3799-7.50684L19.2568-7.50684C18.3906-7.50684 18.0801-7.81738 18.0801-8.64355Z"/>
  </g>
  <g id="Regular-S" transform="matrix(1 0 0 1 1404.51 696)">
   <path d="M9.76562-2.92969C9.76562-0.976562 11.084 0.390625 13.0859 0.390625L77.5879 0.390625C79.5898 0.390625 80.9082-0.976562 80.9082-2.92969L80.9082-67.4316C80.9082-69.4336 79.5898-70.8008 77.5879-70.8008L13.0859-70.8008C11.084-70.8008 9.76562-69.4336 9.76562-67.4316ZM16.7969-7.86133L16.7969-62.5488C16.7969-63.4277 17.0898-63.7207 18.0176-63.7207L72.7051-63.7207C73.584-63.7207 73.877-63.4277 73.877-62.5488L73.877-7.86133C73.877-6.98242 73.584-6.68945 72.7051-6.68945L18.0176-6.68945C17.0898-6.68945 16.7969-6.98242 16.7969-7.86133Z"/>
  </g>
  <g id="Light-S" transform="matrix(1 0 0 1 1108.45 696)">
   <path d="M9.76562-3.06592C9.76562-1.40039 10.8721-0.260249 12.5713-0.260249L76.7857-0.260249C78.4849-0.260249 79.5913-1.40039 79.5913-3.06592L79.5913-67.2803C79.5913-68.9795 78.4849-70.1196 76.7857-70.1196L12.5713-70.1196C10.8721-70.1196 9.76562-68.9795 9.76562-67.2803ZM15.1924-6.74122L15.1924-63.6387C15.1924-64.3662 15.4854-64.6592 16.2466-64.6592L73.144-64.6592C73.8716-64.6592 74.1645-64.3662 74.1645-63.6387L74.1645-6.74122C74.1645-6.01368 73.8716-5.72071 73.144-5.72071L16.2466-5.72071C15.4854-5.72071 15.1924-6.01368 15.1924-6.74122Z"/>
  </g>
  <g id="Thin-S" transform="matrix(1 0 0 1 812.615 696)">
   <path d="M9.76562-3.24609C9.76562-1.96093 10.5918-1.12108 11.8906-1.12108L75.7246-1.12108C77.0235-1.12108 77.8496-1.96093 77.8496-3.24609L77.8496-67.0801C77.8496-68.3789 77.0235-69.2188 75.7246-69.2188L11.8906-69.2188C10.5918-69.2188 9.76562-68.3789 9.76562-67.0801ZM13.0703-5.25979L13.0703-65.0801C13.0703-65.6074 13.3633-65.9004 13.9043-65.9004L73.7246-65.9004C74.2519-65.9004 74.5449-65.6074 74.5449-65.0801L74.5449-5.25979C74.5449-4.73244 74.2519-4.43947 73.7246-4.43947L13.9043-4.43947C13.3633-4.43947 13.0703-4.73244 13.0703-5.25979Z"/>
  </g>
  <g id="Ultralight-S" transform="matrix(1 0 0 1 516.35 696)">
   <path d="M9.76562-3.33838C9.76562-2.24804 10.4482-1.562 11.542-1.562L75.1812-1.562C76.2749-1.562 76.9576-2.24804 76.9576-3.33838L76.9576-66.9775C76.9576-68.0713 76.2749-68.7573 75.1812-68.7573L11.542-68.7573C10.4482-68.7573 9.76562-68.0713 9.76562-66.9775ZM11.9834-4.501L11.9834-65.8183C11.9834-66.2431 12.2764-66.5361 12.7046-66.5361L74.022-66.5361C74.4468-66.5361 74.7397-66.2431 74.7397-65.8183L74.7397-4.501C74.7397-4.07619 74.4468-3.78323 74.022-3.78323L12.7046-3.78323C12.2764-3.78323 11.9834-4.07619 11.9834-4.501Z"/>
  </g>
 </g>
</svg>
